<svg width="744" height="440" viewBox="0 0 744 440" fill="none" xmlns="http://www.w3.org/2000/svg">
<mask id="mask0_26_963" style="mask-type:alpha" maskUnits="userSpaceOnUse" x="0" y="0" width="744" height="440">
<rect width="744" height="440" rx="30" fill="#D1263D"/>
</mask>
<g mask="url(#mask0_26_963)">
<path d="M752 388C752 597.868 548 406 372.5 498.5C219.5 404.5 -8 597.868 -8 388C-8 178.132 162.132 8 372 8C581.868 8 752 178.132 752 388Z" fill="#222225"/>
<circle cx="282.206" cy="121.206" r="51.2063" fill="white"/>
<circle cx="460.794" cy="121.206" r="51.2063" fill="white"/>
<circle cx="274.166" cy="99.6235" r="29.6235" fill="#222225"/>
<circle cx="454.446" cy="99.6235" r="29.6235" fill="#222225"/>
<path d="M350 211L362.095 203.092C362.688 202.704 363.167 202.166 363.484 201.533L368.241 192.017C369.653 189.194 373.625 189.042 375.249 191.748L384.239 206.731C384.73 207.55 385.498 208.166 386.404 208.468L394 211V233C394 245.15 384.15 255 372 255C359.85 255 350 245.15 350 233V211Z" fill="#D1263D"/>
<path d="M269.139 208.69C267.311 208.062 265.319 209.033 264.69 210.861C264.062 212.689 265.033 214.681 266.861 215.31L269.139 208.69ZM266.861 215.31C282.648 220.741 307.015 225.796 328.76 223.073C339.663 221.707 350.144 218.356 358.535 211.884C367.001 205.353 373.102 195.823 375.446 182.611L368.554 181.389C366.498 192.977 361.274 200.931 354.259 206.341C347.169 211.81 338.012 214.859 327.89 216.127C307.585 218.67 284.352 213.925 269.139 208.69L266.861 215.31Z" fill="white"/>
<path d="M476 212C445 222.667 380.8 231.6 372 182" stroke="white" stroke-width="7" stroke-linecap="round"/>
<path d="M374.098 183.5C372.943 185.5 370.057 185.5 368.902 183.5L361.541 170.75C360.386 168.75 361.829 166.25 364.139 166.25L378.861 166.25C381.171 166.25 382.614 168.75 381.459 170.75L374.098 183.5Z" fill="white"/>
<rect x="238.5" y="342.5" width="266.61" height="78.4959" rx="28.5" fill="white" stroke="white" stroke-width="3"/>
<rect x="244.853" y="348.24" width="254.517" height="67.0153" rx="24.5" fill="white" stroke="black"/>
<path d="M312.52 368H320.44V396H312.52V368ZM301.72 396H293.8V368H301.72V396ZM313.08 385.08H301.16V378.52H313.08V385.08ZM322.667 396L335.027 368H342.827L355.227 396H346.987L337.307 371.88H340.427L330.747 396H322.667ZM329.427 390.56L331.467 384.72H345.147L347.187 390.56H329.427ZM357.472 396V368H363.992L379.432 386.64H376.352V368H384.112V396H377.592L362.152 377.36H365.232V396H357.472ZM389.698 396V368H396.218L411.658 386.64H408.578V368H416.338V396H409.818L394.378 377.36H397.458V396H389.698ZM418.565 396L430.925 368H438.725L451.125 396H442.885L433.205 371.88H436.325L426.645 396H418.565ZM425.325 390.56L427.365 384.72H441.045L443.085 390.56H425.325Z" fill="#222225"/>
<path d="M500 358C542.073 353.407 691.895 245.729 696 185" stroke="white" stroke-width="5"/>
<path d="M245 358C202.927 353.407 53.1047 245.729 49 185" stroke="white" stroke-width="5"/>
</g>
</svg>
