<svg width="58" height="58" viewBox="0 0 58 58" fill="none" xmlns="http://www.w3.org/2000/svg">
<path d="M38.309 21.7041H27.2214V0H38.309C44.2927 0 49.1599 4.86717 49.1599 10.8508C49.1599 16.8345 44.2927 21.7041 38.309 21.7041ZM30.7763 18.1492H38.309C42.3328 18.1492 45.6049 14.8746 45.6049 10.8533C45.6049 6.83192 42.3304 3.55733 38.309 3.55733H30.7763V18.1492ZM30.7763 21.7041H19.691C13.7074 21.7041 8.84019 16.8369 8.84019 10.8533C8.84019 4.86958 13.7074 0 19.691 0H30.7787V21.7041H30.7763ZM19.691 3.55492C15.6673 3.55492 12.3951 6.8295 12.3951 10.8508C12.3951 14.8722 15.6673 18.1492 19.691 18.1492H27.2238V3.55492H19.691ZM30.7763 39.8508H19.691C13.7074 39.8508 8.84019 34.9837 8.84019 29C8.84019 23.0163 13.7074 18.1492 19.691 18.1492H30.7787V39.8508H30.7763ZM19.691 21.7041C15.6673 21.7041 12.3951 24.9787 12.3951 29C12.3951 33.0213 15.6697 36.2959 19.691 36.2959H27.2238V21.7041H19.691ZM19.749 58C13.7339 58 8.83777 53.1328 8.83777 47.1492C8.83777 41.1655 13.7049 36.2983 19.6886 36.2983H30.7763V47.0308C30.7763 53.0797 25.8294 58 19.749 58ZM19.691 39.8508C17.7568 39.8534 15.9025 40.6229 14.5349 41.9906C13.1672 43.3583 12.3977 45.2125 12.3951 47.1468C12.3951 51.1705 15.6939 54.4427 19.7514 54.4427C23.8719 54.4427 27.2262 51.1173 27.2262 47.0283V39.8508H19.691ZM38.309 39.8508H38.0722C32.0885 39.8508 27.2214 34.9837 27.2214 29C27.2214 23.0163 32.0885 18.1492 38.0722 18.1492H38.309C44.2927 18.1492 49.1599 23.0163 49.1599 29C49.1599 34.9837 44.2927 39.8508 38.309 39.8508ZM38.0746 21.7041C34.0509 21.7041 30.7787 24.9787 30.7787 29C30.7787 33.0213 34.0533 36.2959 38.0746 36.2959H38.3114C42.3352 36.2959 45.6074 33.0213 45.6074 29C45.6074 24.9787 42.3304 21.7041 38.309 21.7041H38.0746Z" fill="white"/>
</svg>
