<svg width="27" height="21" viewBox="0 0 27 21" fill="none" xmlns="http://www.w3.org/2000/svg">
<path d="M24.2684 0.0259918L13.442 0.0519837L2.61563 0H2.61035C1.15488 0 0 1.34639 0 3.03067V17.1391C0 18.8234 1.15488 20.1698 2.61035 20.1698H24.2841C25.7396 20.1698 26.8946 18.8234 26.8946 17.1391V3.03067C26.8946 1.34639 25.7502 0.0259918 24.2684 0.0259918ZM23.4193 2.10535L13.7479 10.8231L13.7109 10.8543L13.6793 10.8906C13.5633 11.0155 13.4261 11.0311 13.3523 11.0311C13.2785 11.0311 13.1414 11.0102 13.0306 10.8803L12.9991 10.8439L3.75468 2.06377L13.442 2.12615L23.4193 2.10535ZM24.2841 18.0905H2.61035C2.42578 18.0905 2.10938 17.7473 2.10938 17.1391V3.36337L11.475 12.2838C11.9496 12.8037 12.6193 13.1052 13.3313 13.1155H13.3629C14.0643 13.1155 14.7181 12.8296 15.1981 12.3306L24.7957 3.67008V17.1391C24.7851 17.7473 24.4688 18.0905 24.2841 18.0905Z" fill="white"/>
</svg>
