<svg width="60" height="60" viewBox="0 0 60 60" fill="none" xmlns="http://www.w3.org/2000/svg">
<g clip-path="url(#clip0_26_620)">
<path d="M58.865 27.3251L32.6675 1.13014C31.1575 -0.377363 28.7125 -0.377363 27.1975 1.13014L21.77 6.56764L28.67 13.4676C30.2825 12.9301 32.1175 13.2926 33.3925 14.5701C34.6825 15.8576 35.0375 17.7151 34.4875 19.3201L41.1325 25.9701C42.745 25.4126 44.6 25.7751 45.8825 27.0576C47.685 28.8576 47.685 31.7676 45.8825 33.5676C44.085 35.3651 41.18 35.3651 39.3825 33.5676C38.035 32.2151 37.6975 30.2251 38.3725 28.5776L32.15 22.3876V38.7001C32.59 38.9151 33.005 39.2076 33.37 39.5701C35.1525 41.3726 35.1525 44.2776 33.37 46.0701C31.5725 47.8726 28.6475 47.8726 26.8475 46.0701C25.05 44.2726 25.05 41.3726 26.8475 39.5751C27.3025 39.1251 27.815 38.7851 28.36 38.5601V22.0876C27.8175 21.8601 27.3 21.5326 26.86 21.0851C25.4975 19.7226 25.17 17.7301 25.87 16.0626L19.09 9.25014L1.125 27.2026C-0.375 28.7151 -0.375 31.1626 1.125 32.6751L27.325 58.8676C28.835 60.3776 31.28 60.3776 32.79 58.8676L58.865 32.7926C60.3775 31.2851 60.3775 28.8376 58.865 27.3251Z" fill="#222225"/>
</g>
<defs>
<clipPath id="clip0_26_620">
<rect width="60" height="60" fill="white"/>
</clipPath>
</defs>
</svg>
