<svg width="154" height="129" viewBox="0 0 154 129" fill="none" xmlns="http://www.w3.org/2000/svg">
<path d="M82.0096 41.1287C82.0824 35.9354 83.7951 33.4557 88.6801 31.7265C89.6713 31.3143 90.9233 31.3053 91.2461 30.1245C94.338 29.955 97.3299 31.2225 99.6958 32.4945C104.096 34.9673 108.059 38.1798 111.183 42.3926C111.666 43.0521 112.041 43.8964 112.998 43.9632C114.052 41.9669 115.845 40.4072 116.751 38.4488C118.854 33.8302 122.781 32.0344 127.153 30.7508C129.022 29.4853 130.824 29.1777 132.531 30.9332C136.514 31.7885 138.41 34.2792 138.257 38.5524C138.631 39.3968 138.749 40.4639 138.683 41.4219C139.568 46.682 138.831 51.7328 136.103 56.356C136.368 57.3853 136.301 58.3432 135.163 58.7933C134.996 61.1884 134.275 63.256 132.074 64.4503C131.818 64.6731 131.671 64.711 131.415 64.9338C131.609 66.295 131.803 67.6562 130.076 68.2579C129.331 72.0566 126.883 74.7257 125.028 77.8695C124.482 78.7941 123.752 79.6095 122.76 80.0218C122.841 80.9419 122.513 81.4967 121.631 81.724C121.863 83.2323 120.54 83.5733 119.809 84.3888C119.852 85.1618 119.415 85.9015 118.903 86.3471C115.715 88.5797 112.448 89.8921 108.393 89.3688C107.435 89.302 106.952 88.6426 106.578 87.7982C106.393 87.6891 106.355 87.5419 106.317 87.3949C105.506 87.2902 104.913 86.8158 104.98 85.8578C102.984 84.8041 102.012 82.8591 100.932 81.0991C99.7891 80.9232 99.4147 80.0788 99.1495 79.0495C98.0022 78.2475 96.964 77.2606 95.8166 76.4586C94.2146 73.8921 92.5035 71.5105 90.9015 68.944C88.6645 65.1299 86.2804 61.3537 85.1438 56.9425C84.3481 53.8546 83.5524 50.7667 82.5718 47.5697C82.2641 45.7673 81.9898 43.4859 82.0096 41.1287Z" fill="#FAC95D"/>
<path d="M9.4553 54.6496C12.0699 49.5854 16.4289 46.4237 20.8971 43.0771C27.2341 38.4649 34.3803 38.8188 41.422 39.9836C45.0353 40.6206 45.1111 40.9146 46.2266 37.3343C46.407 36.8174 46.5496 36.1534 46.7299 35.6366C48.5715 30.6147 50.4131 25.5929 55.2889 22.6116C55.6921 22.3509 55.9104 21.9811 56.2756 21.5734C60.7726 17.1217 66.0608 15.1318 72.3295 16.339C72.9933 16.4816 73.733 16.9182 74.4302 16.5818C76.3035 15.9422 77.6736 17.0004 79.115 17.7267C80.1865 18.2346 80.7458 19.1881 81.6703 19.7339C86.3264 21.9839 88.7862 26.0542 90.9899 30.3473C90.52 31.566 89.4531 31.6841 88.4239 31.9492C83.539 33.6784 81.6792 36.1961 81.7534 41.3515C81.7336 43.7087 81.9701 45.843 82.5763 48.1957C83.519 51.2457 84.1676 54.3714 85.1482 57.5684C86.394 61.7948 88.8159 65.7181 90.906 69.5701C92.3609 72.1744 94.11 74.703 95.8211 77.0846C95.9287 81.761 96.8092 86.3951 96.3287 91.2231C95.6344 97.0469 95.125 102.98 92.7711 108.447C91.21 111.515 91.21 111.515 88.2606 111.021C86.0932 111.736 83.8455 111.531 81.6736 111.621C80.317 112.441 79.0984 111.971 78.0602 110.984C76.8841 111.287 75.8171 111.405 74.5985 110.935C72.5402 111.465 70.6533 110.227 68.4814 110.316C65.0954 110.561 62.5068 109.033 60.0272 107.32C57.8219 107.888 56.4094 106.057 54.7831 105.221C49.4587 102.203 43.5886 100.109 38.8477 96.3126C38.6628 96.2034 38.3308 96.1321 38.108 95.8759C38.2884 95.359 38.3597 95.0271 38.393 94.5481C38.4642 94.2161 38.3884 93.922 38.3505 93.775C38.4263 94.0691 38.5021 94.3632 38.393 94.5481C38.3597 95.0271 38.2884 95.359 38.108 95.8759C34.5569 93.6549 30.8966 91.6188 28.2943 88.2124L28.1094 88.1033C25.6723 87.1632 24.2931 84.8529 22.8805 83.0216C20.8132 82.2998 19.4764 80.7627 17.9926 79.2634C14.4703 75.9373 12.0483 72.014 9.44145 67.9816C6.97708 63.2852 7.13024 59.012 9.4553 54.6496ZM66.8658 105.871C66.7188 105.909 66.7187 105.909 66.5717 105.947C66.7187 105.909 66.8658 105.871 66.8658 105.871Z" fill="#98C1C2"/>
</svg>
