<svg width="184" height="162" viewBox="0 0 184 162" fill="none" xmlns="http://www.w3.org/2000/svg">
<path d="M88.8793 53.6307C89.5758 47.734 88.0067 44.6667 82.7298 41.9742C81.6682 41.3584 80.2507 41.1603 80.0619 39.7736C76.5832 39.1177 73.0022 40.1055 70.13 41.1922C64.7726 43.3347 59.7988 46.381 55.6267 50.687C54.9798 51.3618 54.429 52.2626 53.3333 52.1946C52.4389 49.7741 50.6407 47.7375 49.9073 45.382C48.2175 39.8322 44.0363 37.2078 39.2731 35.0972C37.345 33.3826 35.3487 32.7637 33.1512 34.4973C28.5087 34.8691 25.9863 37.4075 25.5188 42.2735C24.9679 43.1743 24.6738 44.3659 24.6057 45.4617C22.8136 51.2904 22.8909 57.1252 25.2894 62.7739C24.8344 63.9007 24.7663 64.9964 25.9888 65.6773C25.8185 68.4167 26.326 70.8682 28.641 72.5518C28.8979 72.8428 29.0588 72.9078 29.3157 73.1987C28.8917 74.7124 28.4677 76.226 30.3339 77.1668C30.6093 81.5838 32.9831 84.9761 34.6141 88.8173C35.0938 89.947 35.7994 90.9808 36.861 91.5967C36.6319 92.6274 36.9197 93.3053 37.8853 93.6953C37.3963 95.3699 38.8448 95.9548 39.5504 96.9886C39.3864 97.8584 39.7701 98.7622 40.2838 99.344C43.5614 102.352 47.068 104.33 51.7414 104.345C52.837 104.413 53.4839 103.738 54.0349 102.838C54.2608 102.742 54.3258 102.58 54.3908 102.42C55.3255 102.423 56.0683 101.974 56.1364 100.878C58.5567 99.9832 59.9495 97.9246 61.4382 96.0921C62.7598 96.0641 63.3107 95.1632 63.7657 94.0365C65.1863 93.2997 66.511 92.337 67.9316 91.6002C70.1322 88.9318 72.4287 86.4893 74.6293 83.8209C77.7367 79.8338 81.0051 75.9117 82.9551 71.0828C84.32 67.7026 85.6851 64.3223 87.276 60.8461C87.895 58.8496 88.5481 56.3051 88.8793 53.6307Z" fill="#FAC95D"/>
<path d="M169.079 79.8374C166.876 73.7057 162.41 69.4685 157.848 65.0055C151.358 58.8277 143.205 58.1568 135.05 58.4207C130.86 58.6006 130.73 58.9225 130.002 54.6974C129.875 54.0845 129.814 53.3107 129.687 52.6978C128.353 46.7301 127.019 40.7625 121.94 36.6523C121.522 36.2964 121.331 35.8445 120.978 35.3276C116.549 29.6078 110.854 26.5594 103.568 26.9872C102.795 27.0492 101.891 27.4331 101.151 26.9472C99.1241 25.9414 97.4126 26.9351 95.6701 27.542C94.3795 27.9569 93.6026 28.9537 92.473 29.4336C86.8586 31.2851 83.4602 35.5291 80.3187 40.064C80.6684 41.5157 81.8599 41.8096 82.9865 42.2645C88.2634 44.957 89.9935 48.0894 89.1361 53.9211C88.8049 56.5955 88.2167 58.979 87.1768 61.5544C85.6509 64.8696 84.4469 68.3148 82.856 71.791C80.8101 76.394 77.4767 80.4771 74.5302 84.5292C72.4905 87.2626 70.129 89.8659 67.8325 92.3083C67.0091 97.5922 65.316 102.712 65.1364 108.256C65.0496 114.96 64.7369 121.761 66.5845 128.31C67.8936 132.022 67.8936 132.022 71.3105 131.904C73.6595 133.039 76.2377 133.144 78.6858 133.571C80.1002 134.704 81.5518 134.354 82.8764 133.392C84.1639 133.911 85.3555 134.205 86.8071 133.856C89.0602 134.765 91.3846 133.645 93.8327 134.071C97.6333 134.857 100.796 133.514 103.864 131.944C106.278 132.919 108.153 131.055 110.122 130.352C116.609 127.73 123.576 126.238 129.518 122.646C129.744 122.55 130.131 122.519 130.422 122.263C130.295 121.65 130.264 121.263 130.298 120.715C130.267 120.328 130.397 120.006 130.462 119.845C130.332 120.167 130.202 120.489 130.298 120.715C130.264 121.263 130.295 121.65 130.422 122.263C134.78 120.278 139.233 118.519 142.694 115.049L142.92 114.953C145.823 114.254 147.732 111.842 149.608 109.978C152.059 109.471 153.805 107.929 155.711 106.452C160.202 103.211 163.536 99.128 167.095 94.949C170.592 89.9961 171.06 85.1302 169.079 79.8374ZM96.3304 129.277C96.4913 129.342 96.4914 129.342 96.6523 129.407C96.4914 129.342 96.3304 129.277 96.3304 129.277Z" fill="#98C1C2"/>
</svg>
