<svg width="155" height="241" viewBox="0 0 155 241" fill="none" xmlns="http://www.w3.org/2000/svg">
<path fill-rule="evenodd" clip-rule="evenodd" d="M136.345 21.2566C155.773 24.3319 176.659 12.573 193.933 21.8361C211.96 31.5023 217.865 52.9313 228.072 70.4428C241.488 93.4628 264.87 113.681 262.881 140.137C260.766 168.262 240.146 192.196 217.606 209.649C194.452 227.578 164.224 247.527 136.345 238.117C107.795 228.481 108.972 186.64 87.5397 165.749C71.3915 150.008 43.3384 151.549 29.409 133.879C11.9733 111.761 -5.39148 83.8272 1.5768 56.6991C8.58597 29.4117 35.8286 8.46439 63.4925 1.18913C88.4663 -5.3787 110.821 17.2166 136.345 21.2566Z" fill="#D1263D"/>
<circle cx="126.5" cy="95.5" r="68.5" fill="white"/>
<circle cx="119" cy="76" r="44" fill="#222225"/>
</svg>
