<svg width="59" height="59" viewBox="0 0 59 59" fill="none" xmlns="http://www.w3.org/2000/svg">
<g clip-path="url(#clip0_26_589)">
<path d="M25.6166 26.378C25.3733 25.6159 25.1544 24.8784 24.9111 24.1163C24.6678 23.3542 24.4489 22.6413 24.2543 21.9284C24.0597 21.24 23.8894 20.6009 23.7191 20.0109H23.6704C23.4515 21.068 23.1839 22.125 22.8433 23.1821C22.4784 24.3621 22.1135 25.5913 21.7242 26.8205C21.3837 28.0742 21.0187 29.2296 20.6538 30.2621H26.833C26.687 29.7434 26.4924 29.1313 26.2734 28.4897C26.0545 27.8284 25.8355 27.1155 25.6166 26.378ZM48.0463 0.737549H10.3391C4.62218 0.737549 0 5.40838 0 11.1855V47.8146C0 53.5917 4.62218 58.2626 10.3391 58.2626H48.0463C53.7632 58.2626 58.3854 53.5917 58.3854 47.8146V11.1855C58.3854 5.40838 53.7632 0.737549 48.0463 0.737549ZM35.7611 41.3738H30.6742C30.5064 41.3984 30.3361 41.2755 30.2874 41.1034L28.2926 35.2526H19.2429L17.394 41.0296C17.3453 41.2509 17.1507 41.3984 16.9318 41.3763H12.3582C12.0906 41.3763 12.0177 41.2263 12.0906 40.9338L19.924 18.1425C19.997 17.8967 20.07 17.6263 20.1673 17.3313C20.2646 16.8151 20.3133 16.2742 20.3133 15.7334C20.2889 15.6105 20.3862 15.4875 20.5079 15.463H26.8086C27.0033 15.463 27.1006 15.5367 27.1249 15.6596L36.0043 40.9805C36.0773 41.2484 36.0043 41.3738 35.7611 41.3738ZM44.0323 41.0051C44.0323 41.2755 43.9375 41.3984 43.7185 41.3984H38.9479C38.7047 41.3984 38.583 41.2484 38.583 41.0051V22.0759C38.583 21.83 38.6828 21.7317 38.9017 21.7317H43.7185C43.9375 21.7317 44.0323 21.8546 44.0323 22.0759V41.0051ZM43.5239 18.8063C42.9619 19.3963 42.1348 19.7159 41.3077 19.6667C40.5049 19.6913 39.7264 19.3717 39.1401 18.8063C38.5806 18.1917 38.2887 17.3805 38.313 16.5446C38.2887 15.7088 38.6049 14.9221 39.1863 14.3567C39.7751 13.7913 40.5535 13.4963 41.3563 13.4963C42.3075 13.4963 43.0325 13.7913 43.5701 14.3567C44.1053 14.9467 44.3972 15.7334 44.3729 16.5446C44.3972 17.3805 44.1053 18.1917 43.5239 18.8063Z" fill="white"/>
</g>
<defs>
<clipPath id="clip0_26_589">
<rect width="58.3854" height="59" fill="white"/>
</clipPath>
</defs>
</svg>
