<svg width="60" height="60" viewBox="0 0 60 60" fill="none" xmlns="http://www.w3.org/2000/svg">
<g clip-path="url(#clip0_26_618)">
<path d="M3.81249 14.675C-1.50251 22.31 -0.842508 32.24 3.21999 40.3475C3.31249 40.545 3.41499 40.7325 3.51499 40.92C3.57249 41.05 3.63749 41.17 3.70749 41.295C3.73999 41.3625 3.78499 41.435 3.82499 41.5C3.88999 41.63 3.95999 41.755 4.02749 41.88L4.41999 42.545C4.49499 42.6675 4.56249 42.7875 4.64499 42.91C4.78499 43.145 4.94499 43.3775 5.08999 43.6125C5.15499 43.7125 5.21499 43.8075 5.28749 43.905C5.52991 44.2867 5.78848 44.6579 6.06249 45.0175C6.25749 45.285 6.45249 45.545 6.66249 45.805C6.72999 45.9 6.80749 45.995 6.87749 46.0925L7.42749 46.765C7.49749 46.84 7.56499 46.9325 7.63749 47.0125C7.88249 47.3075 8.14249 47.595 8.40249 47.8875L8.41499 47.9025C8.73244 48.303 9.0883 48.6714 9.47749 49.0025C9.67749 49.21 9.87749 49.415 10.09 49.615L10.3425 49.8575C10.62 50.12 10.9 50.38 11.1925 50.63C11.1975 50.63 11.2 50.635 11.205 50.6375L11.3475 50.7625C11.6025 50.985 11.86 51.2075 12.1225 51.4125L12.435 51.675C12.6475 51.845 12.87 52.0075 13.085 52.175L13.4275 52.4375C13.66 52.6125 13.9075 52.785 14.145 52.955C14.2325 53.0175 14.32 53.08 14.41 53.1375L14.485 53.195L15.185 53.6575L15.485 53.8575C15.855 54.0925 16.22 54.3175 16.585 54.5375C16.6875 54.5875 16.795 54.6475 16.8925 54.7075C17.1625 54.8625 17.4425 55.02 17.715 55.165C17.865 55.25 18.02 55.3225 18.175 55.4C18.3625 55.505 18.5575 55.6075 18.76 55.7125C18.8084 55.7273 18.8552 55.7465 18.9 55.77C18.9825 55.8075 19.06 55.8475 19.14 55.8875C19.44 56.0375 19.7525 56.1825 20.0775 56.325C20.1375 56.35 20.2025 56.375 20.2675 56.41C20.6275 56.5675 20.99 56.7175 21.3625 56.865C21.4475 56.89 21.5375 56.9325 21.625 56.965C21.9625 57.0925 22.31 57.2225 22.6525 57.345L22.7775 57.39C23.1625 57.52 23.54 57.645 23.9275 57.765C24.0175 57.79 24.11 57.8225 24.205 57.8475C24.605 57.9675 24.99 58.11 25.39 58.19C51.0725 62.87 58.535 42.7475 58.535 42.7475C52.265 50.9125 41.14 53.065 30.6 50.67C30.21 50.58 29.82 50.455 29.425 50.34C28.9492 50.1988 28.4766 50.0471 28.0075 49.885L27.8525 49.825C27.5125 49.71 27.185 49.5825 26.8525 49.455C26.7621 49.4184 26.6703 49.385 26.5775 49.355C26.2075 49.205 25.8525 49.0525 25.495 48.895C25.4175 48.87 25.3525 48.835 25.275 48.805C24.9721 48.6659 24.6704 48.5243 24.37 48.38C24.28 48.3402 24.1916 48.2969 24.105 48.25C23.87 48.14 23.635 48.0125 23.405 47.8925C23.2471 47.8167 23.0912 47.7367 22.9375 47.6525C22.6525 47.5025 22.37 47.34 22.0875 47.185C22.0025 47.125 21.905 47.075 21.8075 47.02C21.438 46.801 21.0722 46.5759 20.71 46.345C20.6095 46.2834 20.5111 46.2183 20.415 46.15C20.1497 45.9857 19.8896 45.8131 19.635 45.6325C19.5475 45.575 19.4675 45.5125 19.3775 45.45C19.1283 45.2781 18.8824 45.1014 18.64 44.92C18.535 44.835 18.4225 44.755 18.31 44.67C18.09 44.495 17.8675 44.3325 17.6475 44.15L17.3525 43.9125C17.0685 43.685 16.7893 43.4516 16.515 43.2125C16.4866 43.1839 16.4557 43.1579 16.4225 43.135L15.555 42.345L15.305 42.11C15.1 41.9 14.89 41.7 14.68 41.495L14.435 41.245C14.1709 40.9823 13.9133 40.713 13.6625 40.4375L13.625 40.3975C13.36 40.1075 13.1 39.81 12.8425 39.51C12.775 39.435 12.71 39.35 12.6425 39.2675L12.075 38.575C11.7867 38.2046 11.5034 37.8304 11.225 37.4525C5.37999 29.475 3.26499 18.46 7.94249 9.42754M20.3 8.24504C16.45 13.7725 16.665 21.1675 19.665 27.015C20.1607 27.999 20.7272 28.9456 21.36 29.8475C21.935 30.6725 22.57 31.65 23.3425 32.3175C23.61 32.6225 23.9 32.9175 24.2025 33.2175L24.4275 33.4425C24.7125 33.7175 25.0075 33.985 25.3025 34.255L25.3425 34.2875C25.6797 34.5819 26.0248 34.867 26.3775 35.1425C26.4625 35.2 26.535 35.2675 26.6175 35.325C26.9675 35.595 27.3225 35.855 27.6875 36.115L27.725 36.1375C27.88 36.25 28.045 36.3525 28.22 36.4625C28.29 36.5075 28.37 36.5675 28.445 36.6125C28.71 36.7825 28.97 36.9425 29.24 37.105C29.2825 37.1225 29.32 37.145 29.36 37.1625C29.585 37.3 29.83 37.4325 30.065 37.555C30.1475 37.605 30.2275 37.6425 30.315 37.69C30.48 37.7725 30.645 37.86 30.8075 37.945L30.8875 37.98C31.225 38.1475 31.57 38.3025 31.9075 38.455C31.9925 38.49 32.065 38.5175 32.1375 38.5525C32.415 38.6725 32.6975 38.7875 32.9775 38.895C33.1025 38.9375 33.22 38.9875 33.3375 39.025C33.5925 39.12 33.8625 39.2075 34.1125 39.295L34.4625 39.4075C34.83 39.52 35.2 39.6675 35.585 39.7325C55.41 43.015 60 27.745 60 27.745C55.8675 33.695 47.87 36.5275 39.3475 34.315C38.9703 34.2176 38.5959 34.1092 38.225 33.99C38.105 33.955 38 33.9175 37.885 33.8825C37.625 33.7925 37.3575 33.7075 37.105 33.61L36.745 33.475C36.4625 33.3625 36.1775 33.2575 35.905 33.1375C35.82 33.1 35.7425 33.075 35.6775 33.0375C35.3275 32.88 34.975 32.725 34.6325 32.5575L34.1175 32.29L33.82 32.14C33.5958 32.021 33.3749 31.8959 33.1575 31.765C33.1042 31.7389 33.0524 31.7097 33.0025 31.6775C32.7375 31.5125 32.46 31.3525 32.2075 31.1825C32.1225 31.135 32.045 31.0775 31.965 31.0275L31.445 30.6875C31.085 30.4375 30.7325 30.1675 30.375 29.905C30.295 29.8325 30.2175 29.7725 30.14 29.7075C26.3925 26.7625 23.4375 22.7325 22.035 18.175C20.56 13.4325 20.885 8.11754 23.435 3.80004M34.165 3.43254C31.8925 6.76754 31.675 10.9075 33.24 14.5825C34.9025 18.49 38.3 21.5575 42.26 23.0075C42.4225 23.07 42.58 23.1225 42.75 23.1825L42.97 23.25C43.2 23.325 43.4325 23.4075 43.67 23.46C54.6225 25.5725 57.5875 17.835 58.385 16.7C55.7775 20.445 51.405 21.3425 46.04 20.0375C45.6029 19.9283 45.1722 19.7947 44.75 19.6375C44.2242 19.4531 43.7085 19.2412 43.205 19.0025C42.252 18.5415 41.346 17.9889 40.5 17.3525C35.695 13.71 32.7175 6.76254 35.8525 1.10254" fill="#222225"/>
</g>
<defs>
<clipPath id="clip0_26_618">
<rect width="60" height="60" fill="white"/>
</clipPath>
</defs>
</svg>
