<svg width="61" height="32" viewBox="0 0 61 32" fill="none" xmlns="http://www.w3.org/2000/svg">
<path d="M8.75957 29.1421C8.05704 29.3039 7.55324 29.1421 7.25282 28.6568C6.89934 27.9534 6.7398 27.1684 6.79062 26.3828C6.79062 25.8282 6.79063 24.8391 6.85995 23.4201C6.92928 22.0012 6.96164 20.3974 7.02172 18.6225L3.68006 19.3574C3.53678 23.5449 3.46283 25.6387 3.31493 29.8308C3.31146 29.9875 3.28658 30.143 3.24098 30.2929C3.22137 30.34 3.19044 30.3815 3.15093 30.4138C3.11142 30.4461 3.06455 30.4681 3.0145 30.4778L1.97918 30.7182C1.27665 30.8799 0.772857 30.7182 0.472431 30.2283C0.115885 29.5126 -0.0436469 28.715 0.0102367 27.9173C0.0102367 27.4089 0.010238 26.5307 0.0657013 25.3013C0.121165 24.0718 0.153518 22.6483 0.213603 21.0629C0.273689 19.4776 0.338394 17.7999 0.403101 16.0343C0.467808 14.2687 0.527894 12.614 0.587979 11.0518C0.648065 9.48959 0.698907 8.12612 0.740504 6.95214C0.782102 5.77817 0.795969 4.97858 0.795969 4.54412C0.795969 4.10965 0.893029 3.95713 1.09177 3.91553L2.12246 3.70293C2.88046 3.54578 3.3935 3.77225 3.65695 4.37311C3.96514 5.28596 4.09842 6.24873 4.04982 7.21097C4.04982 7.41434 4.04982 8.13536 3.99435 9.3648C3.93889 10.5942 3.91116 12.0779 3.85107 13.8111L7.21122 13.0993C7.2482 11.9808 7.28826 10.89 7.33139 9.82699C7.37299 8.75932 7.40534 7.78409 7.4377 6.89206C7.47005 6.00002 7.48854 5.23741 7.50703 4.58109C7.52551 3.92478 7.53476 3.46258 7.53476 3.15753C7.53476 2.78316 7.63182 2.57054 7.83056 2.53357L8.86126 2.32096C9.61925 2.16382 10.1323 2.38567 10.3957 2.98652C10.709 3.89024 10.844 4.84615 10.7932 5.80128C10.7932 5.92608 10.7932 6.32818 10.7932 7.01223C10.7932 7.69628 10.7516 8.55134 10.7147 9.58666C10.6777 10.622 10.6407 11.7821 10.6037 13.0577C10.5668 14.3334 10.5205 15.6414 10.4789 16.9818C10.4373 18.3221 10.4004 19.6301 10.3588 20.9058C10.3172 22.1814 10.2802 23.3416 10.2432 24.3769C10.2062 25.4122 10.1785 26.2857 10.1554 26.979C10.1323 27.6723 10.1138 28.1021 10.1046 28.2547C10.1012 28.4114 10.0763 28.5669 10.0306 28.7169C10.011 28.7639 9.98007 28.8055 9.94056 28.8377C9.90105 28.87 9.85419 28.892 9.80413 28.9018L8.75957 29.1421Z" fill="white"/>
<path d="M18.5212 0.370441C18.6565 0.334466 18.7987 0.333402 18.9345 0.367352C19.0703 0.401303 19.1952 0.469158 19.2977 0.564562C19.5307 0.797506 19.7077 1.08043 19.8153 1.39189C19.9722 1.79968 20.0868 2.22249 20.1573 2.65368C20.2498 3.16672 20.3284 3.68899 20.3931 4.22514C20.9107 8.34329 21.3174 11.7589 21.6826 14.4443C22.0477 17.1296 22.2881 19.3204 22.4637 20.9566C22.6393 22.5927 22.7965 23.8407 22.875 24.631C22.9536 25.4214 22.9906 25.976 22.9952 26.2764C23.0187 26.5111 22.9771 26.7478 22.875 26.9605C22.8288 27.0141 22.7674 27.0525 22.699 27.0707C22.6305 27.0888 22.5582 27.0859 22.4914 27.0622L21.5301 26.8357C21.0417 26.7384 20.593 26.4988 20.2405 26.147C19.919 25.8658 19.6661 25.5149 19.501 25.1209C19.3079 24.5633 19.1822 23.9845 19.1266 23.397C19.0481 22.7037 18.9834 21.9179 18.9279 21.0305L15.6602 21.77L15.0686 27.0806C15.0085 27.492 14.8652 27.7277 14.6387 27.7786L13.6404 28.0096C13.4363 28.0536 13.2252 28.0536 13.0211 28.0096C12.8032 27.9711 12.6019 27.8681 12.4433 27.7139C12.2555 27.5215 12.1106 27.2915 12.0181 27.0391C11.8946 26.6843 11.8366 26.3099 11.8471 25.9344C11.8783 25.0059 11.9631 24.0799 12.1013 23.1612C12.2769 21.8733 12.4957 20.4035 12.7576 18.7519C13.0195 17.1003 13.3138 15.3702 13.6404 13.5615C13.967 11.7497 14.2844 10.0365 14.5925 8.42187C14.9007 6.80727 15.1795 5.38679 15.4291 4.16043C15.6787 2.92791 15.8713 2.06361 16.0068 1.56752C16.0511 1.32788 16.1439 1.09983 16.2795 0.897342C16.4133 0.792956 16.5732 0.727394 16.7417 0.707841L18.5212 0.370441ZM16.335 16.2006L18.4934 15.7384C18.1607 11.8652 17.9943 9.92862 17.6661 6.03232C17.1346 10.0765 16.8665 12.124 16.335 16.1914V16.2006Z" fill="white"/>
<path d="M32.7799 29.438C32.3172 29.35 31.9056 29.0888 31.629 28.7077C31.3688 28.3199 31.1824 27.8874 31.079 27.432C30.4196 24.5448 29.8033 21.7933 29.2302 19.1772C28.6571 16.5612 28.067 13.9298 27.46 11.283C27.4816 14.0222 27.5124 16.7538 27.5524 19.4777C27.5848 22.1954 27.6356 24.9454 27.6587 27.677C27.6587 28.056 27.5617 28.227 27.3629 28.1808L26.3276 27.9404C25.9969 27.8753 25.6865 27.7324 25.4221 27.5234C25.1576 27.3144 24.9468 27.0454 24.807 26.7387C24.4706 25.9106 24.3131 25.0206 24.3448 24.1273C24.3448 23.8269 24.3448 23.3185 24.3448 22.6067C24.3448 21.8949 24.3864 21.0491 24.4188 20.0739C24.4511 19.0987 24.4881 18.0356 24.5251 16.8709C24.562 15.7062 24.6083 14.5276 24.6545 13.3305C24.7192 11.4293 24.7747 9.85324 24.8209 8.60223C24.8625 7.35431 24.8994 6.29126 24.9272 5.43158C24.9549 4.5719 24.9734 3.82777 24.9826 3.20843C24.9919 2.58909 25.0104 1.97899 25.015 1.38276C25.015 1.00839 25.112 0.832754 25.3154 0.865107L26.8222 1.10544C27.1985 1.15863 27.5515 1.3191 27.839 1.56764C28.1149 1.81553 28.3367 2.11761 28.4907 2.45505C28.6712 2.8362 28.8092 3.23611 28.902 3.64751C29.0037 4.0866 29.1008 4.53954 29.1886 5.01098C29.4983 6.64715 29.771 8.05684 30.0067 9.2493C30.2424 10.4418 30.4689 11.491 30.6306 12.3922L31.0928 14.7448C31.2269 15.4104 31.3517 16.0251 31.4672 16.5936C31.5828 17.1621 31.6937 17.6982 31.8092 18.2205C31.9248 18.7428 32.045 19.3159 32.1744 19.9306C32.1744 18.4146 32.1744 16.857 32.1466 15.2486C32.1189 13.6402 32.1235 12.0733 32.1097 10.5435C32.0958 9.01359 32.1097 7.54381 32.0773 6.12949C32.045 4.71518 32.0773 3.44415 32.0496 2.31177C32.0496 2.08067 32.1559 1.98362 32.3685 2.02059L33.4084 2.18236C33.7691 2.22795 34.1109 2.37007 34.3975 2.59371C34.6556 2.81931 34.854 3.10506 34.9753 3.42566C35.1253 3.82032 35.2187 4.23424 35.2526 4.6551C35.2988 5.11729 35.3219 5.66267 35.3219 6.25891C35.3219 6.85514 35.3219 7.89508 35.2757 9.22157C35.2295 10.5481 35.2064 12.0363 35.1602 13.6817C35.1139 15.3272 35.0677 17.0326 35.0122 18.7936C34.9568 20.5546 34.9013 22.1769 34.8505 23.6651C34.7996 25.1534 34.7534 26.4152 34.7118 27.4505C34.6702 28.4858 34.6379 29.1052 34.6333 29.2762C34.6441 29.4294 34.6087 29.5824 34.5316 29.7153C34.5072 29.7541 34.4716 29.7846 34.4295 29.8027C34.3874 29.8209 34.3408 29.8258 34.2959 29.8169L32.7799 29.438Z" fill="white"/>
<path d="M45.6612 29.6597C45.4758 29.7403 45.2719 29.7687 45.0715 29.7418C44.8711 29.7149 44.6818 29.6338 44.5242 29.5071C44.2527 29.2253 44.0653 28.8731 43.9835 28.4903C43.3271 25.8897 42.7109 23.3831 42.1347 20.9704C41.5585 18.5578 40.9746 16.1097 40.383 13.6261C40.4076 16.4517 40.4353 19.2618 40.4662 22.0566C40.5031 24.8297 40.5494 27.6676 40.5678 30.4731C40.5678 30.866 40.4708 31.0925 40.272 31.1479C39.8653 31.2589 39.6527 31.0324 39.2413 30.9353C38.9074 30.8685 38.5946 30.7217 38.3298 30.5076C38.065 30.2935 37.856 30.0184 37.7207 29.7059C37.3843 28.847 37.227 27.9285 37.2585 27.0067C37.2585 26.697 37.2585 26.1701 37.2816 25.4306C37.3047 24.6911 37.3232 23.8221 37.3556 22.8146C37.3879 21.807 37.4249 20.7023 37.4665 19.5006C37.5081 18.2989 37.5497 17.0787 37.5959 15.8354C37.6637 13.8757 37.7207 12.2457 37.7669 10.9454C37.8132 9.65128 37.8501 8.5605 37.8779 7.66384C37.9056 6.76718 37.9241 6.00456 37.938 5.35287C37.9518 4.70118 37.9611 4.07721 37.9657 3.45787C37.9657 3.07425 38.0674 2.88938 38.2661 2.92173L39.7729 3.16207C40.1225 3.19045 40.4655 3.2731 40.7897 3.40704C41.0643 3.56487 41.2887 3.79722 41.4368 4.07722C41.6154 4.41465 41.7506 4.77341 41.8389 5.14488C41.9406 5.55624 42.0376 5.98608 42.1254 6.43903C42.4259 7.98738 42.6986 9.32312 42.9297 10.4416C43.1608 11.5601 43.3687 12.54 43.5444 13.3812C43.72 14.2224 43.8772 14.9527 44.0066 15.572C44.136 16.1913 44.2654 16.7552 44.3763 17.2729C44.4872 17.7905 44.6028 18.2851 44.7183 18.7657C44.8339 19.2464 44.9494 19.7595 45.0742 20.3233C45.0742 18.7981 45.0742 17.2282 45.0742 15.6136C45.0742 14.0005 45.0511 12.4198 45.0419 10.8853C45.0326 9.35085 45.0419 7.86721 45.0141 6.44366C44.9864 5.0201 45.0142 3.74444 44.991 2.60282C44.9792 2.50606 45.0061 2.40855 45.0659 2.33152C45.1256 2.25448 45.2133 2.20415 45.31 2.19146L46.336 1.97885C46.6612 1.89042 47.0061 1.90824 47.3205 2.02969C47.5812 2.17144 47.7816 2.40302 47.8844 2.68139C48.0373 3.03631 48.1295 3.41441 48.1571 3.7999C48.1987 4.26209 48.2218 4.77513 48.2264 5.36212C48.231 5.9491 48.2264 6.98904 48.1756 8.32016L48.0508 12.7988C48.0045 14.4535 47.9522 16.1667 47.8936 17.9384C47.8351 19.7102 47.7796 21.351 47.7272 22.8608C47.6764 24.3629 47.6255 25.6339 47.5886 26.697C47.5516 27.76 47.51 28.3748 47.5054 28.5458C47.5154 28.7103 47.487 28.8749 47.4222 29.0265C47.4014 29.077 47.37 29.1226 47.3301 29.1601C47.2903 29.1975 47.2429 29.226 47.1911 29.2437L45.6612 29.6597Z" fill="white"/>
<path d="M55.9728 0.0283748C56.1076 -0.00842596 56.2497 -0.00944539 56.385 0.0254057C56.5204 0.0602568 56.6443 0.129779 56.7446 0.227122C56.9776 0.461899 57.1546 0.7463 57.2623 1.05907C57.4118 1.47047 57.5247 1.89424 57.5997 2.32548C57.6875 2.78767 57.7614 3.30071 57.8215 3.81375C58.3207 7.76088 58.7321 11.0039 59.0556 13.5429C59.3791 16.0819 59.6349 18.1294 59.8228 19.6855C60.0077 21.2431 60.1417 22.394 60.2157 23.1473C60.2896 23.9007 60.3266 24.423 60.3266 24.7188C60.3434 24.9727 60.3023 25.2272 60.2065 25.4629C60.1652 25.5346 60.11 25.5973 60.0441 25.6473C59.9782 25.6973 59.903 25.7337 59.8228 25.7541L58.8753 26.0176C58.6804 26.105 58.4685 26.1481 58.255 26.1439C58.0414 26.1397 57.8314 26.0883 57.64 25.9932C57.4487 25.8982 57.2808 25.762 57.1483 25.5944C57.0159 25.4268 56.9222 25.232 56.874 25.0238C56.6837 24.4643 56.5611 23.884 56.5089 23.2952C56.4349 22.6019 56.3702 21.807 56.3194 20.9149L53.084 21.7607C52.8391 23.9238 52.7189 24.9961 52.4739 27.173C52.4139 27.5983 52.2706 27.8386 52.0487 27.8987L51.0643 28.1714C50.8644 28.2275 50.6547 28.2402 50.4495 28.2084C50.2342 28.1762 50.035 28.0757 49.881 27.9218C49.6906 27.7341 49.5466 27.5047 49.4604 27.2516C49.3363 26.8906 49.2783 26.5101 49.2894 26.1285C49.3206 25.1798 49.407 24.2338 49.5483 23.2952C49.7208 21.9672 49.938 20.4604 50.1999 18.775C50.4619 17.0895 50.7577 15.3208 51.0874 13.469C51.4171 11.6202 51.7344 9.87311 52.0395 8.2277C52.3492 6.58229 52.6311 5.14024 52.8853 3.89232C53.1395 2.64439 53.3475 1.77085 53.4723 1.26243C53.515 1.01878 53.6061 0.786173 53.7404 0.578387C53.8752 0.475978 54.0346 0.410646 54.2025 0.388886L55.9728 0.0283748ZM53.745 16.085L55.8896 15.5581C55.5706 11.6526 55.4274 9.69285 55.0992 5.76883C54.5538 9.87773 54.2857 11.9253 53.745 16.085Z" fill="white"/>
</svg>
