<svg width="61" height="32" viewBox="0 0 61 32" fill="none" xmlns="http://www.w3.org/2000/svg">
<path d="M9.24059 29.1421C8.54538 29.3039 8.04683 29.1421 7.74953 28.6568C7.39974 27.9534 7.24185 27.1684 7.29215 26.3828C7.29215 25.8282 7.29215 24.8391 7.36076 23.4201C7.42937 22.0012 7.46138 20.3974 7.52084 18.6225L4.21399 19.3574C4.0722 23.5449 3.99902 25.6387 3.85266 29.8308C3.84923 29.9875 3.82461 30.143 3.77948 30.2929C3.76008 30.34 3.72947 30.3815 3.69037 30.4138C3.65127 30.4461 3.6049 30.4681 3.55536 30.4778L2.53083 30.7182C1.83562 30.8799 1.33707 30.7182 1.03978 30.2283C0.686943 29.5126 0.529073 28.715 0.582396 27.9173C0.582396 27.4089 0.582397 26.5307 0.637283 25.3013C0.692168 24.0718 0.724185 22.6483 0.783644 21.0629C0.843103 19.4776 0.907135 17.7999 0.971168 16.0343C1.0352 14.2687 1.09466 12.614 1.15412 11.0518C1.21358 9.48959 1.26389 8.12612 1.30506 6.95214C1.34622 5.77817 1.35994 4.97858 1.35994 4.54412C1.35994 4.10965 1.45599 3.95713 1.65267 3.91553L2.67262 3.70293C3.42272 3.54578 3.93041 3.77225 4.19112 4.37311C4.4961 5.28596 4.628 6.24873 4.5799 7.21097C4.5799 7.41434 4.5799 8.13536 4.52501 9.3648C4.47012 10.5942 4.44268 12.0779 4.38322 13.8111L7.70837 13.0993C7.74496 11.9808 7.7846 10.89 7.82729 9.82699C7.86846 8.75932 7.90047 7.78409 7.93249 6.89206C7.9645 6.00002 7.9828 5.23741 8.00109 4.58109C8.01939 3.92478 8.02854 3.46258 8.02854 3.15753C8.02854 2.78316 8.12459 2.57054 8.32126 2.53357L9.34122 2.32096C10.0913 2.16382 10.599 2.38567 10.8597 2.98652C11.1697 3.89024 11.3033 4.84615 11.2531 5.80128C11.2531 5.92608 11.2531 6.32818 11.2531 7.01223C11.2531 7.69628 11.2119 8.55134 11.1753 9.58666C11.1387 10.622 11.1021 11.7821 11.0655 13.0577C11.0289 14.3334 10.9832 15.6414 10.942 16.9818C10.9009 18.3221 10.8643 19.6301 10.8231 20.9058C10.782 22.1814 10.7454 23.3416 10.7088 24.3769C10.6722 25.4122 10.6447 26.2857 10.6219 26.979C10.599 27.6723 10.5807 28.1021 10.5716 28.2547C10.5683 28.4114 10.5436 28.5669 10.4984 28.7169C10.479 28.7639 10.4484 28.8055 10.4093 28.8377C10.3702 28.87 10.3238 28.892 10.2743 28.9018L9.24059 29.1421Z" fill="#222225"/>
<path d="M18.9005 0.370441C19.0344 0.334466 19.1751 0.333402 19.3095 0.367352C19.4439 0.401303 19.5675 0.469158 19.6689 0.564562C19.8995 0.797506 20.0747 1.08043 20.1812 1.39189C20.3364 1.79968 20.4498 2.22249 20.5196 2.65368C20.6111 3.16672 20.6888 3.68899 20.7529 4.22514C21.2651 8.34329 21.6676 11.7589 22.029 14.4443C22.3903 17.1296 22.6281 19.3204 22.8019 20.9566C22.9757 22.5927 23.1313 23.8407 23.209 24.631C23.2868 25.4214 23.3234 25.976 23.3279 26.2764C23.3512 26.5111 23.31 26.7478 23.209 26.9605C23.1633 27.0141 23.1025 27.0525 23.0348 27.0707C22.967 27.0888 22.8954 27.0859 22.8294 27.0622L21.878 26.8357C21.3948 26.7384 20.9508 26.4988 20.6019 26.147C20.2838 25.8658 20.0335 25.5149 19.8701 25.1209C19.679 24.5633 19.5546 23.9845 19.4997 23.397C19.4219 22.7037 19.3579 21.9179 19.303 21.0305L16.0693 21.77L15.4839 27.0806C15.4244 27.492 15.2826 27.7277 15.0585 27.7786L14.0706 28.0096C13.8686 28.0536 13.6597 28.0536 13.4577 28.0096C13.2421 27.9711 13.0429 27.8681 12.886 27.7139C12.7001 27.5215 12.5567 27.2915 12.4652 27.0391C12.3429 26.6843 12.2856 26.3099 12.2959 25.9344C12.3268 25.0059 12.4108 24.0799 12.5475 23.1612C12.7213 21.8733 12.9378 20.4035 13.197 18.7519C13.4562 17.1003 13.7474 15.3702 14.0706 13.5615C14.3938 11.7497 14.7078 10.0365 15.0128 8.42187C15.3177 6.80727 15.5936 5.38679 15.8406 4.16043C16.0876 2.92791 16.2782 2.06361 16.4123 1.56752C16.4562 1.32788 16.548 1.09983 16.6822 0.897342C16.8146 0.792956 16.9728 0.727394 17.1396 0.707841L18.9005 0.370441ZM16.7371 16.2006L18.8731 15.7384C18.5437 11.8652 18.3791 9.92862 18.0543 6.03232C17.5284 10.0765 17.2631 12.124 16.7371 16.1914V16.2006Z" fill="#222225"/>
<path d="M33.0106 29.438C32.5528 29.35 32.1455 29.0888 31.8717 28.7077C31.6143 28.3199 31.4298 27.8874 31.3275 27.432C30.6749 24.5448 30.0651 21.7933 29.4979 19.1772C28.9308 16.5612 28.3469 13.9298 27.7462 11.283C27.7675 14.0222 27.798 16.7538 27.8376 19.4777C27.8697 22.1954 27.92 24.9454 27.9428 27.677C27.9428 28.056 27.8468 28.227 27.6501 28.1808L26.6256 27.9404C26.2983 27.8753 25.9911 27.7324 25.7295 27.5234C25.4678 27.3144 25.2591 27.0454 25.1208 26.7387C24.7879 25.9106 24.6321 25.0206 24.6634 24.1273C24.6634 23.8269 24.6634 23.3185 24.6634 22.6067C24.6634 21.8949 24.7046 21.0491 24.7366 20.0739C24.7686 19.0987 24.8052 18.0356 24.8418 16.8709C24.8784 15.7062 24.9241 14.5276 24.9699 13.3305C25.0339 11.4293 25.0888 9.85324 25.1345 8.60223C25.1757 7.35431 25.2123 6.29126 25.2397 5.43158C25.2672 4.5719 25.2855 3.82777 25.2946 3.20843C25.3038 2.58909 25.3221 1.97899 25.3266 1.38276C25.3266 1.00839 25.4227 0.832754 25.6239 0.865107L27.115 1.10544C27.4874 1.15863 27.8367 1.3191 28.1212 1.56764C28.3942 1.81553 28.6138 2.11761 28.7661 2.45505C28.9448 2.8362 29.0813 3.23611 29.1732 3.64751C29.2738 4.0866 29.3699 4.53954 29.4568 5.01098C29.7632 6.64715 30.0331 8.05684 30.2663 9.2493C30.4996 10.4418 30.7237 11.491 30.8838 12.3922L31.3412 14.7448C31.4738 15.4104 31.5973 16.0251 31.7116 16.5936C31.826 17.1621 31.9358 17.6982 32.0501 18.2205C32.1645 18.7428 32.2834 19.3159 32.4114 19.9306C32.4114 18.4146 32.4114 16.857 32.384 15.2486C32.3566 13.6402 32.3611 12.0733 32.3474 10.5435C32.3337 9.01359 32.3474 7.54381 32.3154 6.12949C32.2834 4.71518 32.3154 3.44415 32.288 2.31177C32.288 2.08067 32.3931 1.98362 32.6035 2.02059L33.6326 2.18236C33.9896 2.22795 34.3278 2.37007 34.6114 2.59371C34.8668 2.81931 35.0632 3.10506 35.1832 3.42566C35.3316 3.82032 35.424 4.23424 35.4576 4.6551C35.5033 5.11729 35.5262 5.66267 35.5262 6.25891C35.5262 6.85514 35.5262 7.89508 35.4805 9.22157C35.4347 10.5481 35.4119 12.0363 35.3661 13.6817C35.3204 15.3272 35.2746 17.0326 35.2198 18.7936C35.1649 20.5546 35.11 22.1769 35.0597 23.6651C35.0094 25.1534 34.9636 26.4152 34.9225 27.4505C34.8813 28.4858 34.8493 29.1052 34.8447 29.2762C34.8554 29.4294 34.8204 29.5824 34.7441 29.7153C34.7199 29.7541 34.6847 29.7846 34.6431 29.8027C34.6014 29.8209 34.5553 29.8258 34.5108 29.8169L33.0106 29.438Z" fill="#222225"/>
<path d="M45.7579 29.6597C45.5744 29.7403 45.3726 29.7687 45.1743 29.7418C44.9759 29.7149 44.7887 29.6338 44.6327 29.5071C44.364 29.2253 44.1786 28.8731 44.0976 28.4903C43.4481 25.8897 42.8382 23.3831 42.268 20.9704C41.6978 18.5578 41.12 16.1097 40.5346 13.6261C40.559 16.4517 40.5864 19.2618 40.6169 22.0566C40.6535 24.8297 40.6992 27.6676 40.7175 30.4731C40.7175 30.866 40.6215 31.0925 40.4248 31.1479C40.0223 31.2589 39.8119 31.0324 39.4049 30.9353C39.0744 30.8685 38.7649 30.7217 38.5028 30.5076C38.2408 30.2935 38.0339 30.0184 37.9001 29.7059C37.5672 28.847 37.4115 27.9285 37.4427 27.0067C37.4427 26.697 37.4427 26.1701 37.4656 25.4306C37.4884 24.6911 37.5067 23.8221 37.5387 22.8146C37.5708 21.807 37.6074 20.7023 37.6485 19.5006C37.6897 18.2989 37.7308 17.0787 37.7766 15.8354C37.8437 13.8757 37.9001 12.2457 37.9458 10.9454C37.9916 9.65128 38.0281 8.5605 38.0556 7.66384C38.083 6.76718 38.1013 6.00456 38.115 5.35287C38.1288 4.70118 38.1379 4.07721 38.1425 3.45787C38.1425 3.07425 38.2431 2.88938 38.4398 2.92173L39.9308 3.16207C40.2768 3.19045 40.6163 3.2731 40.9371 3.40704C41.2088 3.56487 41.4308 3.79722 41.5774 4.07722C41.7542 4.41465 41.8879 4.77341 41.9753 5.14488C42.0759 5.55624 42.172 5.98608 42.2589 6.43903C42.5562 7.98738 42.8261 9.32312 43.0547 10.4416C43.2834 11.5601 43.4893 12.54 43.6631 13.3812C43.8369 14.2224 43.9924 14.9527 44.1204 15.572C44.2485 16.1913 44.3766 16.7552 44.4863 17.2729C44.5961 17.7905 44.7105 18.2851 44.8248 18.7657C44.9391 19.2464 45.0535 19.7595 45.177 20.3233C45.177 18.7981 45.177 17.2282 45.177 15.6136C45.177 14.0005 45.1541 12.4198 45.145 10.8853C45.1358 9.35085 45.145 7.86721 45.1175 6.44366C45.0901 5.0201 45.1175 3.74444 45.0947 2.60282C45.083 2.50606 45.1096 2.40855 45.1687 2.33152C45.2278 2.25448 45.3146 2.20415 45.4102 2.19146L46.4256 1.97885C46.7474 1.89042 47.0888 1.90824 47.3998 2.02969C47.6578 2.17144 47.8561 2.40302 47.9579 2.68139C48.1092 3.03631 48.2004 3.41441 48.2277 3.7999C48.2689 4.26209 48.2917 4.77513 48.2963 5.36212C48.3009 5.9491 48.2963 6.98904 48.246 8.32016L48.1225 12.7988C48.0768 14.4535 48.0249 16.1667 47.967 17.9384C47.9091 19.7102 47.8542 21.351 47.8023 22.8608C47.752 24.3629 47.7017 25.6339 47.6651 26.697C47.6285 27.76 47.5874 28.3748 47.5828 28.5458C47.5928 28.7103 47.5646 28.8749 47.5005 29.0265C47.4799 29.077 47.4488 29.1226 47.4094 29.1601C47.3699 29.1975 47.323 29.226 47.2718 29.2437L45.7579 29.6597Z" fill="#222225"/>
<path d="M55.962 0.0283748C56.0954 -0.00842596 56.236 -0.00944539 56.3699 0.0254057C56.5039 0.0602568 56.6265 0.129779 56.7258 0.227122C56.9564 0.461899 57.1315 0.7463 57.238 1.05907C57.386 1.47047 57.4977 1.89424 57.5719 2.32548C57.6588 2.78767 57.732 3.30071 57.7915 3.81375C58.2854 7.76088 58.6925 11.0039 59.0127 13.5429C59.3328 16.0819 59.5859 18.1294 59.7719 19.6855C59.9549 21.2431 60.0875 22.394 60.1607 23.1473C60.2339 23.9007 60.2705 24.423 60.2705 24.7188C60.287 24.9727 60.2464 25.2272 60.1516 25.4629C60.1107 25.5346 60.0561 25.5973 59.9909 25.6473C59.9257 25.6973 59.8512 25.7337 59.7719 25.7541L58.8343 26.0176C58.6414 26.105 58.4318 26.1481 58.2204 26.1439C58.009 26.1397 57.8012 26.0883 57.6119 25.9932C57.4225 25.8982 57.2564 25.762 57.1253 25.5944C56.9942 25.4268 56.9015 25.232 56.8538 25.0238C56.6655 24.4643 56.5442 23.884 56.4925 23.2952C56.4193 22.6019 56.3553 21.807 56.305 20.9149L53.1033 21.7607C52.8609 23.9238 52.742 24.9961 52.4996 27.173C52.4401 27.5983 52.2983 27.8386 52.0788 27.8987L51.1046 28.1714C50.9068 28.2275 50.6993 28.2402 50.4963 28.2084C50.2832 28.1762 50.086 28.0757 49.9337 27.9218C49.7453 27.7341 49.6028 27.5047 49.5175 27.2516C49.3946 26.8906 49.3373 26.5101 49.3482 26.1285C49.3791 25.1798 49.4646 24.2338 49.6044 23.2952C49.7751 21.9672 49.9901 20.4604 50.2493 18.775C50.5085 17.0895 50.8012 15.3208 51.1275 13.469C51.4537 11.6202 51.7678 9.87311 52.0697 8.2277C52.3761 6.58229 52.6551 5.14024 52.9067 3.89232C53.1582 2.64439 53.364 1.77085 53.4875 1.26243C53.5298 1.01878 53.62 0.786173 53.7528 0.578387C53.8863 0.475978 54.044 0.410646 54.2102 0.388886L55.962 0.0283748ZM53.7574 16.085L55.8796 15.5581C55.564 11.6526 55.4223 9.69285 55.0975 5.76883C54.5578 9.87773 54.2925 11.9253 53.7574 16.085Z" fill="#222225"/>
</svg>
