<svg width="663" height="462" viewBox="0 0 663 462" fill="none" xmlns="http://www.w3.org/2000/svg">
<mask id="mask0_26_1016" style="mask-type:alpha" maskUnits="userSpaceOnUse" x="0" y="0" width="663" height="462">
<rect width="663" height="462" fill="white"/>
</mask>
<g mask="url(#mask0_26_1016)">
<path d="M763 390C763 599.868 609 491.5 383 534.5C162.5 480 3 599.868 3 390C3 180.132 173.132 10 383 10C592.868 10 763 180.132 763 390Z" fill="#D1263D"/>
<circle cx="293.206" cy="123.206" r="51.2063" fill="white"/>
<circle cx="471.794" cy="123.206" r="51.2063" fill="white"/>
<circle cx="285.166" cy="101.623" r="29.6235" fill="#222225"/>
<circle cx="465.446" cy="101.623" r="29.6235" fill="#222225"/>
<path d="M280.139 210.69C278.311 210.062 276.319 211.033 275.69 212.861C275.062 214.689 276.033 216.681 277.861 217.31L280.139 210.69ZM277.861 217.31C293.648 222.741 318.015 227.796 339.76 225.073C350.663 223.707 361.144 220.356 369.535 213.884C378.001 207.353 384.102 197.823 386.446 184.611L379.554 183.389C377.498 194.977 372.274 202.931 365.259 208.341C358.169 213.81 349.012 216.859 338.89 218.127C318.585 220.67 295.352 215.925 280.139 210.69L277.861 217.31Z" fill="white"/>
<path d="M487 214C456 224.667 391.8 233.6 383 184" stroke="white" stroke-width="7" stroke-linecap="round"/>
<path d="M385.098 185.5C383.943 187.5 381.057 187.5 379.902 185.5L372.541 172.75C371.386 170.75 372.829 168.25 375.139 168.25L389.861 168.25C392.171 168.25 393.614 170.75 392.459 172.75L385.098 185.5Z" fill="white"/>
<path d="M435.914 252.404C436.57 254.951 439.951 255.481 441.355 253.258L459.96 223.801C461.235 221.783 459.757 219.158 457.371 219.199L431.297 219.655C429.358 219.689 427.96 221.525 428.444 223.403L435.914 252.404Z" fill="white"/>
</g>
</svg>
