<svg width="778" height="394" viewBox="0 0 778 394" fill="none" xmlns="http://www.w3.org/2000/svg">
<mask id="mask0_26_1001" style="mask-type:alpha" maskUnits="userSpaceOnUse" x="0" y="0" width="778" height="394">
<rect width="778" height="394" fill="white"/>
</mask>
<g mask="url(#mask0_26_1001)">
<path d="M769 384C769 593.868 615 485.5 389 528.5C168.5 474 9 593.868 9 384C9 174.132 179.132 4 389 4C598.868 4 769 174.132 769 384Z" fill="#222225"/>
<circle cx="299.206" cy="117.206" r="51.2063" fill="white"/>
<circle cx="477.794" cy="117.206" r="51.2063" fill="white"/>
<circle cx="291.166" cy="95.6235" r="29.6235" fill="#222225"/>
<circle cx="471.446" cy="95.6235" r="29.6235" fill="#222225"/>
<path d="M367 207L379.095 199.092C379.688 198.704 380.167 198.166 380.484 197.533L385.241 188.017C386.653 185.194 390.625 185.042 392.249 187.748L401.239 202.731C401.73 203.55 402.498 204.166 403.404 204.468L411 207V229C411 241.15 401.15 251 389 251C376.85 251 367 241.15 367 229V207Z" fill="#D1263D"/>
<path d="M286.139 204.69C284.311 204.062 282.319 205.033 281.69 206.861C281.062 208.689 282.033 210.681 283.861 211.31L286.139 204.69ZM283.861 211.31C299.648 216.741 324.015 221.796 345.76 219.073C356.663 217.707 367.144 214.356 375.535 207.884C384.001 201.353 390.102 191.823 392.446 178.611L385.554 177.389C383.498 188.977 378.274 196.931 371.259 202.341C364.169 207.81 355.012 210.859 344.89 212.127C324.585 214.67 301.352 209.925 286.139 204.69L283.861 211.31Z" fill="white"/>
<path d="M493 208C462 218.667 397.8 227.6 389 178" stroke="white" stroke-width="7" stroke-linecap="round"/>
<path d="M391.098 179.5C389.943 181.5 387.057 181.5 385.902 179.5L378.541 166.75C377.386 164.75 378.829 162.25 381.139 162.25L395.861 162.25C398.171 162.25 399.614 164.75 398.459 166.75L391.098 179.5Z" fill="white"/>
</g>
</svg>
