<svg width="819" height="526" viewBox="0 0 819 526" fill="none" xmlns="http://www.w3.org/2000/svg">
<mask id="mask0_26_986" style="mask-type:alpha" maskUnits="userSpaceOnUse" x="0" y="0" width="819" height="526">
<rect width="819" height="526" fill="white"/>
</mask>
<g mask="url(#mask0_26_986)">
<path d="M808 457C808 707.185 624.416 577.999 355 629.259C92.1408 564.289 -98 707.185 -98 457C-98 206.815 104.815 4 355 4C605.185 4 808 206.815 808 457Z" fill="#D1263D"/>
<circle cx="247.956" cy="138.954" r="61.0433" fill="white"/>
<circle cx="460.851" cy="138.954" r="61.0433" fill="white"/>
<circle cx="238.371" cy="113.225" r="35.3143" fill="#222225"/>
<circle cx="453.284" cy="113.225" r="35.3143" fill="#222225"/>
<path d="M294.014 288.302C293.358 290.848 289.977 291.379 288.572 289.156L269.968 259.699C268.693 257.681 270.171 255.055 272.557 255.097L298.631 255.553C300.57 255.587 301.968 257.423 301.484 259.301L294.014 288.302Z" fill="white"/>
<path d="M232.16 243.88C230.332 243.251 228.34 244.223 227.711 246.051C227.083 247.879 228.054 249.87 229.882 250.499L232.16 243.88ZM229.882 250.499C248.646 256.956 277.586 262.952 303.37 259.722C316.293 258.104 328.659 254.138 338.537 246.519C348.491 238.841 355.68 227.631 358.446 212.038L351.554 210.815C349.075 224.786 342.763 234.418 334.262 240.976C325.684 247.592 314.641 251.256 302.5 252.777C278.156 255.826 250.351 250.139 232.16 243.88L229.882 250.499Z" fill="white"/>
<path d="M478.979 247.19C442.024 259.905 365.491 270.555 355 211.426" stroke="white" stroke-width="7" stroke-linecap="round"/>
<path d="M357.002 214.079C355.847 216.079 352.961 216.079 351.806 214.079L342.032 197.151C340.878 195.151 342.321 192.651 344.63 192.651L364.177 192.651C366.487 192.651 367.93 195.151 366.776 197.151L357.002 214.079Z" fill="white"/>
</g>
</svg>
