<svg width="34" height="25" viewBox="0 0 34 25" fill="none" xmlns="http://www.w3.org/2000/svg">
<g clip-path="url(#clip0_26_626)">
<path d="M29.4667 11.2903L18.9428 2.0968C18.4571 1.61293 18.4571 0.806477 18.7809 0.322606C19.2667 -0.161266 20.0762 -0.161264 20.5619 0.161317L33.5143 11.4516C34 11.9355 34.1619 12.742 33.6762 13.2258L33.5143 13.3871L20.5619 24.6774C20.0762 25.1613 19.2667 25 18.7809 24.5162C18.4571 24.0323 18.4571 23.3871 18.9428 22.9033L29.4667 13.7097L1.13332 13.7097C0.4857 13.7097 -1.42321e-05 13.2258 -1.41757e-05 12.5807C-1.41193e-05 11.9355 0.4857 11.2903 1.29522 11.2903L29.4667 11.2903Z" fill="black"/>
</g>
<defs>
<clipPath id="clip0_26_626">
<rect width="34" height="25" fill="white" transform="translate(34 25) rotate(-180)"/>
</clipPath>
</defs>
</svg>
