<svg width="58" height="58" viewBox="0 0 58 58" fill="none" xmlns="http://www.w3.org/2000/svg">
<g clip-path="url(#clip0_26_587)">
<path d="M23.8042 20.3483C22.91 19.9858 21.9433 19.8408 20.9525 19.865C20.3242 19.865 19.7683 19.865 19.3092 19.8891C18.8258 19.865 18.4875 19.8891 18.3183 19.9133V28.0333C18.6567 28.0575 18.9708 28.0816 19.2608 28.0816H20.5417C21.4842 28.0816 22.4267 27.9366 23.3208 27.6466C24.0942 27.4291 24.7708 26.97 25.3025 26.3658C25.81 25.7616 26.0517 24.94 26.0517 23.8766C26.0758 23.1275 25.8825 22.3783 25.4958 21.7258C25.085 21.0975 24.505 20.6141 23.8042 20.3483ZM47.7292 0.724976H10.2708C4.59167 0.724976 0 5.31664 0 10.9958V47.0017C0 52.6809 4.59167 57.2726 10.2708 57.2726H47.7292C53.4083 57.2726 58 52.6809 58 47.0017V10.9958C58 5.31664 53.4083 0.724976 47.7292 0.724976ZM29.8676 28.8791C28.9033 30.2325 27.55 31.2475 25.9792 31.8275C24.3358 32.4316 22.5233 32.6491 20.5417 32.6491C19.9617 32.6491 19.575 32.6491 19.3333 32.625C19.0917 32.6008 18.7533 32.6008 18.2942 32.6008V40.3559C18.3183 40.5251 18.1975 40.6725 18.0283 40.6966H13.34C13.1467 40.6966 13.05 40.5976 13.05 40.3801V15.515C13.05 15.3458 13.1225 15.2491 13.2917 15.2491C13.7025 15.2491 14.0892 15.2491 14.645 15.225C15.225 15.2008 15.8292 15.2008 16.4817 15.1766C17.1342 15.1525 17.835 15.1525 18.5842 15.1283C19.3333 15.1041 20.0583 15.1041 20.7833 15.1041C22.765 15.1041 24.4083 15.3458 25.7617 15.8533C26.97 16.2641 28.0817 16.9408 29 17.835C29.7733 18.6083 30.3775 19.5508 30.7642 20.59C31.1243 21.605 31.3176 22.6441 31.3176 23.7316C31.32 25.81 30.8367 27.5258 29.8676 28.8791ZM47.0042 38.28C46.3275 39.2466 45.3826 39.9934 44.2975 40.4332C43.1133 40.9383 41.6633 41.2017 39.9209 41.2017C38.8117 41.2017 37.7218 41.1075 36.6367 40.89C35.7908 40.7426 34.945 40.4791 34.1717 40.1166C34.0025 40.0224 33.8793 39.8532 33.9034 39.6599V35.4549C33.9034 35.3848 33.93 35.2857 34.0025 35.2374C34.0726 35.1891 34.1475 35.2132 34.22 35.2616C35.1625 35.8174 36.1533 36.2065 37.2167 36.4457C38.1326 36.6874 39.0993 36.8082 40.0683 36.8082C40.9867 36.8082 41.6392 36.685 42.0742 36.4675C42.4608 36.2983 42.7267 35.8875 42.7267 35.4525C42.7267 35.1117 42.5333 34.8 42.1467 34.4858C41.76 34.1741 40.9649 33.8116 39.7808 33.3476C38.5483 32.9126 37.4148 32.3326 36.3491 31.61C35.5999 31.0759 34.974 30.3775 34.51 29.5558C34.1258 28.7825 33.9324 27.9366 33.9566 27.0884C33.9566 26.0492 34.2466 25.0584 34.7807 24.1642C35.3848 23.1976 36.2766 22.4242 37.3158 21.9409C38.4492 21.3633 39.875 21.0975 41.5908 21.0975C42.5817 21.0975 43.5967 21.17 44.5875 21.315C45.3125 21.4116 46.0133 21.605 46.6658 21.8708C46.7601 21.895 46.8592 21.9916 46.9075 22.0883C46.9317 22.185 46.9558 22.2816 46.9558 22.3783V26.3175C46.9558 26.4141 46.9075 26.5108 46.835 26.5591C46.6175 26.6075 46.4967 26.6075 46.4 26.5591C45.675 26.1725 44.9017 25.9066 44.08 25.7375C43.1858 25.5441 42.2917 25.4233 41.3733 25.4233C40.89 25.3991 40.3825 25.4716 39.9209 25.5925C39.6092 25.665 39.3409 25.8341 39.1717 26.0758C39.0509 26.2691 38.9784 26.5108 38.9784 26.7283C38.9784 26.9458 39.0751 27.1633 39.2225 27.3566C39.44 27.6225 39.7276 27.84 40.0442 28.0091C40.5976 28.2991 41.18 28.565 41.7576 28.8066C43.065 29.2416 44.3217 29.8458 45.4817 30.5708C46.2792 31.0759 46.9317 31.755 47.3884 32.5766C47.7751 33.3451 47.9684 34.1958 47.9443 35.0634C47.9708 36.2016 47.6325 37.3351 47.0042 38.28Z" fill="white"/>
</g>
<defs>
<clipPath id="clip0_26_587">
<rect width="58" height="58" fill="white"/>
</clipPath>
</defs>
</svg>
