<svg width="76" height="144" viewBox="0 0 76 144" fill="none" xmlns="http://www.w3.org/2000/svg">
<path d="M74.9011 39.5864C75.3978 41.7392 75.0666 43.7264 75.0666 45.8792C74.2388 46.5416 73.2453 47.0384 74.2388 48.1976C74.4043 49.8536 74.0733 51.5096 73.5765 53C71.5897 53.3312 71.9208 54.4904 72.4175 55.8152C72.2519 56.1464 72.0864 56.4776 71.9208 56.8088C71.2585 56.312 70.4307 54.8216 69.7684 56.8088C69.4372 57.6368 69.7684 58.796 68.9405 59.2927C66.9536 60.2863 67.2847 62.1079 67.1191 63.7639L66.9536 63.9295C64.47 65.0887 62.4831 67.4071 59.6684 68.0695C58.1782 68.4007 58.5094 69.5599 58.3438 70.5535C58.0127 70.7191 57.6816 70.8847 57.3504 71.0503C57.1848 71.2159 57.0192 71.3815 56.8536 71.5471C56.688 71.7127 56.3569 71.7127 56.1914 71.8783C55.0324 71.7127 54.5356 72.3751 54.5356 73.3687C53.8734 74.6935 53.0455 75.6871 52.052 76.5151C50.5619 76.5151 49.2373 76.3495 47.9127 77.1775C47.0849 77.5087 45.7602 77.0119 45.5947 78.171C45.2635 79.6614 46.5881 79.6615 47.5816 79.9927C48.575 80.3238 48.2439 81.6486 49.0718 82.1454C48.2439 88.935 47.2504 95.7246 44.2701 102.017C41.7865 107.151 35.1636 109.801 30.1964 107.317C28.8718 106.654 28.2096 105.329 27.5473 104.005C25.8915 100.361 25.5604 96.387 25.2292 92.4126C24.7325 85.4574 24.7325 78.5023 26.0571 71.7127C27.2161 66.2479 29.3685 61.9423 35.3291 59.9551C37.9783 59.1271 40.4619 57.9679 42.9455 56.6432C45.5947 55.1528 46.9193 53.1656 47.416 50.516C47.9127 48.032 48.0783 45.548 48.4094 43.064C48.9061 38.4272 47.5816 34.1217 45.7603 29.9817C45.7603 28.1601 45.9258 26.5041 48.575 25.6761C46.4225 25.0137 44.7668 25.1793 43.4422 24.8481C40.9586 24.0201 38.3095 23.3577 35.8259 23.8545C35.4948 23.8545 35.1636 24.0201 34.8324 24.0201C29.0374 23.0265 27.216 26.6697 27.8783 32.7969C27.8783 33.1281 27.8784 33.2937 27.7128 33.6249C26.8849 33.9561 26.3882 34.4529 26.0571 35.2809C24.8981 35.2809 23.739 35.2809 23.739 36.7712C23.4079 36.9368 22.9111 36.9369 22.9111 37.1025C22.9111 37.7648 23.4079 37.4336 23.739 37.5992C24.2357 37.5992 24.7325 37.5992 25.2292 37.5992C25.2292 38.2616 25.3948 38.7584 25.8915 39.0896C26.0571 39.752 25.8915 40.2488 25.3947 40.7456C24.7324 40.7456 23.739 40.58 23.5735 40.9112C21.5866 43.2296 18.6063 43.5608 16.1227 44.8856C14.6325 45.548 13.1423 46.0448 11.321 46.8728C12.6456 47.7008 13.8047 47.5352 14.9637 47.7008C15.2948 49.688 13.4735 50.516 12.8112 52.172C10.6588 51.5096 8.50631 51.0128 6.68501 49.688C4.03584 47.8664 3.37353 44.8856 2.21452 42.236C2.54567 42.236 2.71124 42.236 3.04239 42.0704C3.53911 41.9048 4.03588 41.7392 4.03588 41.0768C4.03588 40.9112 3.70476 40.7456 3.53919 40.7456C3.04247 40.58 2.54573 40.9112 2.38016 41.408C2.38016 41.5736 2.21452 41.9048 2.21452 42.0704C0.889938 41.408 2.04895 39.4208 0.558792 38.924C0.0620728 38.2616 -0.10348 37.4336 0.062093 36.6056C2.04897 35.7777 1.7178 34.6185 0.558792 33.4593C0.0620728 29.3193 2.04901 25.6761 4.03588 22.3641C6.85063 17.7273 9.99647 13.2562 14.1358 9.77858C20.5931 3.98261 28.3751 0.50502 37.316 0.173821C42.1176 0.00822222 46.7537 -0.322974 51.3897 0.836221C54.8667 1.66422 57.5159 3.48581 59.6684 5.8042C63.4765 9.94418 66.788 14.4154 69.2716 19.7145C68.4437 21.2049 67.7815 22.6953 66.9536 24.3513C68.6093 24.6825 69.7683 25.3449 71.2585 25.1793C71.424 25.3449 71.5896 25.6761 71.7552 25.8417C71.424 27.0009 71.7552 27.6633 72.9142 27.8289C72.9142 28.1601 72.9142 28.3257 72.9142 28.6569C71.0929 28.4913 69.6028 29.6505 67.4503 28.8225C68.2782 30.8097 70.4306 30.8097 70.7618 32.6313C71.0929 35.6121 71.424 35.6121 74.5699 35.7777C74.5699 36.7712 74.5699 37.7648 74.5699 38.7584C74.2388 38.924 73.9077 39.0896 73.5765 39.0896C73.5765 39.2552 73.7421 39.4208 73.7421 39.4208C74.2388 39.4208 74.4044 39.2552 74.7356 38.924H74.9011V39.5864ZM50.5619 6.13539C48.575 5.1418 46.4225 5.3074 44.2701 5.8042C45.7603 6.301 47.2504 6.79779 48.575 7.79138C50.5618 9.28178 50.7275 7.95699 50.7275 6.4666C51.0586 6.301 51.3897 6.13539 51.7209 5.96979C51.7209 5.80419 51.5554 5.6386 51.5554 5.6386C51.0586 5.473 50.7274 5.80419 50.5619 6.13539ZM27.2161 25.3449C27.2161 24.6825 26.8849 24.5169 26.5538 24.5169C26.3882 24.5169 25.8915 24.6825 25.8915 24.8481C25.726 25.3449 26.0571 25.5105 26.3882 25.6761C26.7194 25.8417 27.0505 25.6761 27.2161 25.3449Z" fill="#89AB69"/>
<path d="M46.4227 131.991C46.4227 137.787 42.449 142.423 36.3228 143.251C34.6671 143.417 33.0113 144.742 31.0245 143.417C28.2097 141.596 25.8917 139.443 24.5671 136.296C22.7458 131.66 24.4016 126.029 28.0442 122.717C30.8589 120.068 34.3359 119.736 37.8129 119.405C40.1309 119.24 42.1178 120.73 43.1113 122.22C45.0982 124.704 46.5883 128.016 46.4227 131.991Z" fill="#89AB69"/>
<path d="M2.21446 42.7327C3.37347 45.3823 4.03579 48.1975 6.68495 50.1847C8.50626 51.5095 10.6587 52.0063 12.8112 52.6687C13.4735 51.1783 15.2947 50.1847 14.9636 48.1975C16.1226 47.5351 16.4538 46.7071 16.1226 45.3823C18.6062 44.0575 21.5865 43.7263 23.5734 41.4079C23.9046 41.0767 24.898 41.2423 25.3947 41.2423C25.3947 44.8855 23.4079 47.7007 21.421 50.5159C19.5997 53.3311 16.4538 53.6623 13.4735 53.9935C6.85059 54.4903 3.70468 50.5159 1.55223 45.7135C0.724367 43.8919 -0.434664 41.9047 0.393201 39.752C1.88336 40.0832 0.724307 42.0703 2.21446 42.7327Z" fill="#94B278"/>
<path d="M74.2388 36.44C71.0929 36.2744 70.7617 36.2743 70.4306 33.2936C70.0995 31.3064 68.1126 31.472 67.1191 29.4848C69.2716 30.3128 70.9273 29.1536 72.583 29.3192C74.2388 31.3064 74.5699 33.7904 74.2388 36.44Z" fill="#9BB982"/>
<path d="M35.6602 24.1857C38.1438 23.6889 40.793 24.5169 43.2766 25.1793C44.6012 25.5105 46.2568 25.5105 48.4093 26.0073C45.7601 26.6697 45.5945 28.4913 45.5945 30.3129C42.9454 27.3321 39.4683 25.5105 35.6602 24.1857Z" fill="#94B278"/>
<path d="M48.9058 82.311C48.0779 81.8142 48.4091 80.4894 47.4157 80.1582C46.4223 79.827 45.0977 79.6614 45.4288 78.3367C45.76 77.3431 47.0845 77.8398 47.7468 77.3431C49.0714 76.6807 50.5615 76.8463 51.8861 76.6807C51.555 78.9991 50.2304 80.655 48.9058 82.311Z" fill="#9BB982"/>
<path d="M58.5098 70.7187C58.6753 69.7251 58.3443 68.5659 59.8344 68.2347C62.6492 67.5723 64.4704 65.2539 67.1196 64.0947C67.2852 64.5915 67.1196 65.2539 66.7884 65.5851C64.9671 67.7379 62.4835 69.0627 60.4967 70.7187C59.8344 71.2155 59.0065 70.8843 58.5098 70.7187Z" fill="#9BB982"/>
<path d="M27.7131 33.1283C27.0508 26.8355 28.8721 23.3579 34.6672 24.3515C31.5213 25.3451 29.6999 27.6635 28.7065 30.6443C28.3754 31.4723 28.3754 32.4659 27.7131 33.1283Z" fill="#94B278"/>
<path d="M67.1191 63.7638C67.2847 62.1078 66.9536 60.2863 68.9405 59.2927C69.7684 58.7959 69.4372 57.6367 69.7684 56.8087C70.4307 54.8215 71.2585 56.4775 71.9208 56.8087C71.0929 59.6239 69.6027 62.1078 67.1191 63.7638Z" fill="#9BB982"/>
<path d="M71.093 25.6762C69.6029 25.8418 68.2782 25.1794 66.7881 24.8482C67.616 23.1922 68.4439 21.7018 69.1061 20.2114C70.4307 21.7018 71.093 23.5234 71.093 25.6762Z" fill="#9BB982"/>
<path d="M25.8913 35.612C26.2225 34.7841 26.7192 34.2873 27.5471 33.9561C27.2159 35.9432 26.8847 37.7648 25.7257 39.4208C25.229 39.0896 25.0635 38.4272 25.0635 37.9304C25.3946 37.1024 25.7258 36.2744 25.8913 35.612Z" fill="#94B278"/>
<path d="M0.558792 33.9561C1.55223 35.2808 2.04897 36.44 0.062093 37.1024C-0.10348 35.9432 0.0620728 34.9497 0.558792 33.9561Z" fill="#94B278"/>
<path d="M72.4182 55.8152C71.9215 54.4904 71.5903 53.1656 73.5772 53C73.7428 54.1592 73.4116 55.1528 72.4182 55.8152Z" fill="#9BB982"/>
<path d="M74.2388 48.1978C73.0798 47.0386 74.2388 46.5418 75.0667 45.8794C75.0667 46.7074 75.0667 47.5354 74.2388 48.1978Z" fill="#9BB982"/>
<path d="M74.4043 39.4207C74.4043 38.4271 74.4043 37.4335 74.4043 36.4399C75.5633 37.2679 75.2321 38.4271 74.901 39.5863H74.7355L74.4043 39.4207Z" fill="#9BB982"/>
<path d="M72.7492 28.3256C71.4246 28.16 71.259 27.332 71.5902 26.3384C72.2524 26.8352 72.7492 27.4976 72.7492 28.3256Z" fill="#9BB982"/>
<path d="M54.5361 73.5341C54.5361 72.3749 55.1984 71.8781 56.1919 72.0437C56.0263 73.0373 55.5296 73.5341 54.5361 73.5341Z" fill="#9BB982"/>
<path d="M57.0186 71.7126C57.1841 71.547 57.3497 71.2158 57.5153 71.2158C57.5153 71.547 57.3497 71.7126 57.0186 71.7126Z" fill="#9BB982"/>
<path d="M15.9569 45.3823C16.4536 46.7071 15.9569 47.5351 14.7979 48.1975C13.6389 48.0319 12.4799 48.1975 11.1553 47.3695C12.9766 46.5415 14.4668 46.0447 15.9569 45.3823Z" fill="#9BB982"/>
<path d="M50.7279 6.3011C50.5623 7.79149 50.5622 9.28187 48.5754 7.62588C47.2508 6.63229 45.7607 6.30109 44.2705 5.6387C46.423 5.1419 48.5754 4.97629 50.5623 5.96989L50.7279 6.3011Z" fill="#9BB982"/>
<path d="M25.8913 35.612C25.5602 36.44 25.3946 37.1024 25.0634 37.9304C24.5667 37.9304 24.07 37.9304 23.5732 37.9304C23.5732 37.5992 23.5732 37.4336 23.5732 37.1024C23.7388 35.4464 24.7323 35.4464 25.8913 35.612Z" fill="#85A865"/>
<path d="M2.21387 42.7326C2.21387 42.567 2.21393 42.2358 2.3795 42.0702C2.54507 41.5734 3.04181 41.2422 3.53853 41.4078C3.7041 41.4078 4.03523 41.739 4.03523 41.739C4.03523 42.4014 3.53845 42.567 3.04173 42.7326C2.71059 42.567 2.37944 42.567 2.21387 42.7326Z" fill="#94B278"/>
<path d="M27.2153 25.3451C27.0497 25.6763 26.7186 25.8419 26.3874 25.6763C26.0563 25.5107 25.7251 25.1795 25.8907 24.8483C25.8907 24.6827 26.3874 24.5171 26.553 24.5171C26.8841 24.5171 27.2153 24.6827 27.2153 25.3451Z" fill="#94B278"/>
<path d="M50.5615 6.13556C50.7271 5.80437 51.0582 5.47318 51.3894 5.63877C51.555 5.63877 51.555 5.80437 51.555 5.96997C51.2239 6.13557 50.8927 6.30117 50.5615 6.46677C50.7271 6.30117 50.5615 6.13556 50.5615 6.13556Z" fill="#9BB982"/>
<path d="M23.5737 37.1025C23.5737 37.4337 23.5737 37.5993 23.5737 37.9305C23.2426 37.7649 22.5803 38.0961 22.7459 37.4337C22.7459 37.2681 23.2426 37.2681 23.5737 37.1025Z" fill="#94B278"/>
<path d="M74.5702 39.5863C74.4046 39.9175 74.0735 40.2487 73.5768 40.0831C73.4112 40.0831 73.4111 39.9175 73.4111 39.7519C73.7423 39.7519 74.0734 39.5863 74.5702 39.5863Z" fill="#9BB982"/>
</svg>
