<svg width="58" height="58" viewBox="0 0 58 58" fill="none" xmlns="http://www.w3.org/2000/svg">
<g clip-path="url(#clip0_26_624)">
<path d="M34.0309 29.0097C34.0309 30.4424 33.4679 31.8165 32.4656 32.8298C31.4633 33.8431 30.1038 34.4127 28.686 34.4134C27.2677 34.4134 25.9076 33.8441 24.9048 32.8307C23.902 31.8173 23.3386 30.4428 23.3386 29.0097C23.3386 27.577 23.9016 26.2029 24.9039 25.1896C25.9063 24.1763 27.2658 23.6067 28.6836 23.606C30.1018 23.606 31.4619 24.1754 32.4647 25.1887C33.4676 26.2021 34.0309 27.5766 34.0309 29.0097ZM40.3636 3.17554C37.1447 3.17554 32.9333 5.49554 28.674 9.51204C24.4171 5.51729 20.2033 3.22387 16.9868 3.22387C16.0063 3.22387 15.1142 3.44862 14.3418 3.8957C11.0535 5.81212 10.3169 11.7837 12.0149 19.2778C4.73516 21.5495 0 25.1817 0 29.0097C0 32.8522 4.75907 36.4941 12.0603 38.7489C10.3767 46.272 11.1276 52.2532 14.4231 54.1672C15.1884 54.6191 16.0732 54.8318 17.0585 54.8318C20.2751 54.8318 24.4889 52.5118 28.7481 48.4905C33.005 52.4876 37.2188 54.781 40.4354 54.781C41.4159 54.781 42.3079 54.5635 43.0804 54.1165C46.3663 52.2025 47.1052 46.2309 45.4073 38.7344C52.6607 36.482 57.3958 32.8425 57.3958 29.0097C57.3958 25.1672 52.6368 21.5253 45.3355 19.2657C47.0191 11.7499 46.2682 5.76379 42.9727 3.84737C42.2122 3.4027 41.3298 3.17795 40.3636 3.17554ZM40.3517 5.8097V5.8242C40.8897 5.8242 41.3226 5.93054 41.6861 6.13112C43.2789 7.05429 43.97 10.5657 43.4319 15.0825C43.3028 16.1941 43.0923 17.3662 42.834 18.5625C40.5382 17.9921 38.0367 17.5547 35.4037 17.272C33.8253 15.0849 32.1871 13.0984 30.537 11.3584C34.3442 7.7817 37.9195 5.81937 40.3541 5.81212L40.3517 5.8097ZM16.9868 5.85804C19.407 5.85804 22.999 7.8107 26.8158 11.368C25.1752 13.108 23.5395 15.0825 21.985 17.2695C19.3376 17.5523 16.8337 17.9897 14.5403 18.5697C14.2724 17.3855 14.0739 16.24 13.9328 15.138C13.3828 10.6237 14.062 7.1147 15.6404 6.17945C16.0947 5.96195 16.597 5.87012 16.9868 5.85804ZM28.662 13.2289C29.7502 14.3599 30.8383 15.6262 31.9145 17.0085C30.8622 16.9602 29.786 16.9264 28.6979 16.9264C27.5978 16.9264 26.5097 16.9505 25.4455 17.0085C26.4977 15.6262 27.5859 14.3623 28.662 13.2289ZM28.6979 19.575C30.4676 19.575 32.2302 19.6572 33.964 19.7998C34.9349 21.2063 35.882 22.707 36.7931 24.2948C37.6828 25.8415 38.4911 27.4123 39.2277 28.9976C38.4911 30.5805 37.6828 32.1635 36.8051 33.7101C35.8963 35.3051 34.9565 36.8228 33.9831 38.2293C32.2421 38.3815 30.4772 38.4661 28.6979 38.4661C26.9282 38.4661 25.1657 38.3815 23.4319 38.2414C22.4609 36.8349 21.5139 35.3317 20.6027 33.7464C19.7131 32.1997 18.9048 30.6289 18.1682 29.0435C18.8928 27.4558 19.7131 25.8705 20.5908 24.3214C21.4995 22.7264 22.4394 21.2135 23.4127 19.807C25.1537 19.6524 26.9186 19.5702 28.6979 19.5702V19.575ZM20.0048 20.1889C19.4309 21.1 18.8569 22.0328 18.3212 22.9922C17.7831 23.9347 17.2809 24.882 16.8026 25.8294C16.1689 24.244 15.6308 22.6635 15.186 21.1241C16.7165 20.7616 18.3308 20.4378 20.0048 20.1889ZM37.3671 20.1889C39.0292 20.4378 40.6315 20.7447 42.1644 21.1241C41.7339 22.6515 41.1959 24.2223 40.586 25.7955C40.1077 24.853 39.6055 23.9033 39.0555 22.9584C38.5174 22.011 37.9434 21.0879 37.3695 20.1889H37.3671ZM44.6922 21.8201C45.8497 22.1826 46.9498 22.5862 47.9805 23.0236C52.1226 24.812 54.8011 27.1513 54.8011 29.0073C54.7891 30.8633 52.1106 33.2123 47.9686 34.9885C46.9641 35.4235 45.8641 35.815 44.7281 36.18C44.0585 33.8648 43.1832 31.453 42.0975 28.9783C43.1736 26.5205 44.0346 24.1208 44.6922 21.8153V21.8201ZM12.6582 21.8298C13.323 24.1498 14.2007 26.5592 15.2888 29.0315C14.2126 31.4892 13.3469 33.889 12.6917 36.1945C11.5342 35.832 10.4341 35.426 9.41531 34.9861C5.27324 33.205 2.59477 30.8633 2.59477 29.0073C2.59477 27.1513 5.27324 24.7975 9.41531 23.0236C10.4197 22.5886 11.5198 22.1971 12.6582 21.8298ZM40.586 32.1731C41.2198 33.7609 41.7579 35.3438 42.2027 36.8808C40.6721 37.2602 39.0555 37.5816 37.3814 37.8233C37.9554 36.917 38.5293 35.9818 39.0674 35.0248C39.6055 34.0823 40.1053 33.1205 40.586 32.1731ZM16.8026 32.2215C17.2809 33.1688 17.7831 34.1137 18.3332 35.061C18.8832 36.0035 19.4452 36.9267 20.0192 37.8233C18.3571 37.5768 16.7548 37.2675 15.2219 36.8905C15.6523 35.368 16.1928 33.7923 16.8002 32.219L16.8026 32.2215ZM42.8556 39.44C43.1234 40.6315 43.3339 41.7794 43.463 42.879C44.013 47.3933 43.3339 50.9023 41.7555 51.84C41.4039 52.0575 40.9471 52.1493 40.4091 52.1493C37.9889 52.1493 34.3968 50.199 30.58 46.6393C32.2206 44.8993 33.8564 42.9273 35.4108 40.7426C38.0582 40.4575 40.5621 40.02 42.8556 39.44ZM14.5642 39.4642C16.86 40.0297 19.3615 40.4671 21.9946 40.7499C23.5729 42.937 25.2111 44.9235 26.8613 46.661C23.0468 50.245 19.4668 52.2073 17.0322 52.2073C16.5061 52.1952 16.0613 52.0865 15.7097 51.8883C14.117 50.97 13.4258 47.4561 13.9639 42.9394C14.0931 41.8277 14.3059 40.658 14.5642 39.4642ZM25.4694 41.0109C26.5217 41.0592 27.5978 41.093 28.686 41.093C29.786 41.093 30.8742 41.0689 31.9384 41.0109C30.8861 42.3932 29.798 43.6571 28.7218 44.793C27.6337 43.6571 26.5456 42.3932 25.4694 41.0109Z" fill="#222225"/>
</g>
<defs>
<clipPath id="clip0_26_624">
<rect width="57.3958" height="58" fill="white"/>
</clipPath>
</defs>
</svg>
