<svg width="81" height="94" viewBox="0 0 81 94" fill="none" xmlns="http://www.w3.org/2000/svg">
<path d="M33.1822 25.2933C33.1822 24.4496 32.9713 23.6059 33.8148 23.1841C36.5565 22.3404 36.5565 22.3403 38.0327 24.8714C39.0872 23.184 38.8762 21.4966 39.298 19.8092C39.7198 17.278 42.6724 19.1764 43.7268 17.489C41.1961 15.8016 41.196 15.8016 38.8762 16.6453C37.8217 17.0671 37.4 16.4344 36.9782 15.8016C36.9782 15.1689 37.1891 14.747 37.1891 14.1143C38.0326 14.1143 38.8762 14.1143 38.8762 13.0596C38.8762 12.4269 38.0327 12.2159 37.4 12.005C37.1892 10.7394 37.8218 9.89569 38.4545 9.05198C42.4615 8.20828 42.4614 7.9973 43.094 3.9897C45.8357 2.93507 48.1555 4.83341 50.8971 5.04433C53.4278 8.841 53.0061 13.4814 53.8497 17.6999C54.9041 23.8168 55.5367 29.9336 56.1694 36.0505C56.5912 39.4253 56.5913 39.4253 60.1764 39.8471C65.8705 40.4799 71.5646 40.2691 77.0478 41.5347C80.0003 42.1674 80.8439 43.6438 79.7894 46.5968C79.1568 48.0733 78.3132 49.3389 77.0478 50.1826C72.1973 53.3465 67.3468 56.7213 62.2854 59.6743C59.7546 61.1507 58.7001 62.8382 58.911 65.7912C59.5437 72.1189 59.5437 78.4467 60.8091 84.7745C60.8091 85.1964 60.8091 85.829 60.8091 86.2509C60.8091 88.5711 61.2308 91.1023 58.911 92.7897C57.2239 93.8443 51.7407 93.2115 49.8426 91.524C46.4684 88.5711 42.8833 86.04 40.5634 81.8215C37.6109 76.5483 35.291 76.3374 30.4405 80.1341C28.3316 81.8215 26.0117 83.298 24.1137 84.9854C19.4741 88.7821 18.2088 88.993 12.3038 86.4619C12.3038 84.3526 12.9365 82.6651 14.2018 80.9777C16.9435 76.9701 16.9434 72.1189 18.6305 67.6894C18.8414 66.8457 18.8414 66.002 19.2632 65.1583C22.2157 59.8851 19.685 56.9322 15.889 53.3465C12.0929 49.7607 7.24229 46.8078 5.13336 41.5347C4.71157 40.691 3.44632 40.0582 2.60275 39.4254C2.18096 36.4724 2.6027 34.1522 5.97698 33.0976C6.60966 32.8867 7.03142 32.2538 7.6641 31.832C8.71856 31.6211 9.77302 31.6211 10.8275 32.2539C13.78 34.3631 16.9434 34.9959 20.3177 34.3631C22.8484 34.3631 25.59 34.574 28.1207 35.4177C28.3316 35.8396 28.3316 36.6833 28.5425 36.6833C29.3861 36.6833 28.9643 35.8396 29.1752 35.4177C29.597 35.2068 29.8079 34.7849 30.2296 34.574C32.5495 34.574 31.7059 32.0429 32.7604 31.4101C35.502 29.5118 34.6584 27.6135 33.1822 25.2933Z" fill="#FAC95D"/>
<path d="M43.0946 3.98966C42.4619 7.99725 42.2511 8.20823 38.4551 9.05194C38.8769 6.3099 39.7204 3.56791 41.6185 1.45865C42.2511 0.614942 43.0946 -0.439765 44.1491 0.193013C46.6798 1.45857 50.0541 1.45854 50.8977 5.04429C48.1561 4.83336 45.8362 2.93503 43.0946 3.98966C42.8837 3.56781 42.6729 3.35693 42.6729 3.77878L43.0946 3.98966Z" fill="#FACF71"/>
<path d="M36.7679 15.8018C37.1897 16.4345 37.6115 17.0672 38.666 16.6454C40.9858 15.8017 40.9858 15.8017 43.5165 17.4891C42.6729 19.3875 39.5096 17.2782 39.0878 19.8093C38.8769 21.4967 38.8768 23.3951 37.8223 24.8716C36.3461 22.3404 36.3461 22.3405 33.6045 23.1842C34.4481 20.6531 34.2372 17.7001 36.7679 15.8018Z" fill="#FACF71"/>
<path d="M7.66456 31.832C7.24277 32.2539 6.61012 32.8867 5.97744 33.0977C2.81405 34.1523 2.18142 36.6834 2.60321 39.4254C0.494281 38.3708 0.494255 36.0506 0.0724694 34.3632C-0.349316 32.4648 1.12686 30.7775 3.02489 30.5665C4.50114 30.3556 6.3992 29.9337 7.66456 31.832Z" fill="#FACF71"/>
<path d="M33.1829 25.2935C34.6592 27.4027 35.7135 29.512 32.5501 31.1994C31.4957 31.8321 32.3394 34.3633 30.0195 34.3633C30.8631 31.4103 30.8631 28.0355 33.1829 25.2935Z" fill="#FACF71"/>
<path d="M20.3183 34.1522C16.944 34.785 13.5697 34.1522 10.8281 32.043C14.6242 32.043 17.9985 32.6757 20.3183 34.1522Z" fill="#FACF71"/>
<path d="M37.4004 12.2158C38.0331 12.2158 38.6657 12.4267 38.8766 13.2705C38.8766 14.3251 37.8221 14.3251 37.1895 14.3251C37.1895 13.4814 37.1895 12.8486 37.4004 12.2158Z" fill="#FACF71"/>
<path d="M28.9646 35.207C28.7537 35.6289 29.1754 36.4725 28.3318 36.4725C28.1209 36.4725 28.121 35.6289 27.9102 35.207C28.3319 35.207 28.5428 35.207 28.9646 35.207Z" fill="#FACF71"/>
<path d="M43.0945 3.98958C42.8836 3.98958 42.6729 3.7787 42.6729 3.7787C42.8837 3.56778 42.8836 3.56773 43.0945 3.98958Z" fill="#FAC95D"/>
</svg>
